<svg width="348px" height="414px" viewBox="0 0 348 414" xmlns="http://www.w3.org/2000/svg"><g transform="translate(-230.000000, -150.000000) translate(230.225000, 150.479366)" fill-rule="nonzero" fill="none"><g transform="translate(43.357405, 0.000000)"><path d="M249.9749 91.6953c2.5266 1.8924 4.3526 4.8693 4.8834 7.9312.1699.957.2123 10.7806.1699 33.256l-.0637 31.8953-.4671 1.6373c-.8493 3.0194-2.4417 5.9112-4.3314 7.9525-.4246.4678-2.5691 2.5941-4.7772 4.763-2.2082 2.169-7.6436 7.5273-12.0812 11.9076-13.0153 12.8644-35.6277 35.191-38.8974 38.4018l-3.015 2.9556-.1274 18.074-.5308 1.042c-.7219 1.4033-2.3143 2.8066-3.6732 3.2106-.9342.2765-3.8642.319-21.2534.319-18.6844-.0213-20.2768-.0425-21.2747-.3827-1.7198-.5954-2.9301-1.7436-3.6944-3.551-.3865-.8901-.4213-1.2872-.4244-24.6817l-.0003-38.9386.5096-2.0413c.552-2.1476 1.5075-4.2952 2.7602-6.1877 1.2315-1.85 6.9854-7.825 25.2026-26.0477 16.3276-16.373 17.177-17.181 18.7906-18.0102 2.1657-1.1482 3.5245-1.4672 6.136-1.446 2.463 0 3.9917.3828 6.03 1.5098 1.7835.9568 2.5267 1.5947 3.7794 3.147 1.9958 2.509 2.8239 4.8906 2.8239 8.0801 0 2.9556-.8706 5.6136-2.6116 7.8675-.361.4678-5.0108 5.252-10.3613 10.6317-6.667 6.7405-9.8518 10.079-10.1703 10.738-.7219 1.4035-.7856 3.211-.2123 4.763.9555 2.5304 3.121 4.0401 5.8176 4.0614 2.8027 0 1.7835.9143 22.1452-19.4986l18.3022-18.3504.0637-23.496.0637-23.4962.5945-1.6798c.7431-2.105 1.4013-3.2534 2.739-4.7205 4.4163-4.8268 11.9113-5.5285 17.1556-1.616zm-225.2253 4.743l.6156 1.489.0637 23.8201.0425 23.8203 18.4252 18.4607c10.1253 10.1661 18.786 18.6946 19.253 18.9711 1.4223.8295 2.887 1.0847 4.203.7657 1.4435-.3828 2.1015-.723 3.1629-1.6802 1.21-1.0847 1.9104-2.7436 1.9316-4.5088v-.2266c-.0038-2.372-.2307-2.6-11.123-13.5339-10.9532-11.0169-11.3353-11.4848-12.2906-14.6962-.4033-1.3612-.467-1.9142-.382-4.1473.1061-2.7223.2122-3.1264 1.507-5.6573 1.3799-2.7436 4.8611-5.4447 8.0027-6.2103 1.8468-.4466 5.137-.3616 6.8989.1914 3.1204.957 3.0142.872 20.7814 18.6734 9.1277 9.1453 17.385 17.461 18.3615 18.5032.9977 1.0422 2.7171 2.85 3.8422 4.0197 3.6935 3.8708 5.2218 6.4442 6.1558 10.4214.3779 1.59.4195 2.3546.424 23.959v18.0504c-.0045 21.6727-.0461 22.238-.424 23.2411-.5094 1.3611-1.7194 2.6797-3.1204 3.3603l-1.019.5105-20.5902.0425c-16.4723.0213-20.7602-.0213-21.482-.234-1.783-.5742-3.5874-2.4033-4.0968-4.1685-.1215-.4258-.2043-3.9647-.2118-8.7178l-.0005-9.4026-1.868-1.829c-9.8919-9.762-31.119-30.7325-37.933-37.4745-4.67-4.615-10.6773-10.549-13.3731-13.1862l-.4858-.4797c-2.5054-2.4774-4.8995-4.8998-5.4578-5.539-2.1652-2.4885-3.6936-5.636-4.2455-8.805-.2547-1.3613-.2971-7.2738-.3184-33.157l.0002-1.8836C.0026 109.208.0675 99.179.2322 98.395c.8067-4.4663 4.394-8.337 8.9367-9.6558 6.453-1.8716 12.9273 1.34 15.5807 7.699z" fill="#4E0000"/><path d="M123.0229 126.4792c-6.4564-2.699-13.9076-6.6946-20.2158-10.8389-17.7813-11.6677-31.456-26.5022-38.9496-42.208-2.9636-6.2483-4.89-12.369-6.0753-19.34-.4022-2.4015-.4657-3.5704-.4657-9.0324-.0212-5.632.0211-6.567.4657-9.1387 1.2066-6.9496 3.1117-12.2628 6.3293-17.576 3.1752-5.292 8.0863-10.2013 13.209-13.2617 3.5563-2.1253 8.8907-4.038 12.9973-4.6756 2.392-.3826 9.3353-.3826 11.6426 0 2.392.3825 5.5673 1.1901 8.044 2.0615 4.9957 1.764 12.574 6.1633 16.1937 9.3937.2752.255.635.4676.7409.4676.127 0 .9949-.595 1.9051-1.2964C139.407 2.8306 150.8803-.931 161.8243.1953c9.8645 1.0202 18.7975 5.9508 25.1692 13.8356 3.7256 4.6331 6.9008 11.2852 8.4038 17.7035 1.2277 5.1645 1.397 6.7372 1.3759 13.3255 0 5.5895-.0423 6.312-.5715 9.245-.635 3.613-1.2066 6.2695-1.7358 7.9697-1.5665 5.0157-1.9899 6.1846-3.9585 10.414-3.387 7.3746-9.6316 16.726-14.6696 21.9965-.2329.255-1.2701 1.3602-2.2862 2.4866-3.5351 3.868-11.177 10.6263-16.1303 14.218-8.9118 6.5034-18.2047 11.774-27.159 15.4083-1.4393.595-2.032.7226-3.281.7226-1.3336-.0213-1.8204-.1488-3.9584-1.0414zm-22.0998-27.671c-.1481-.4039-.254-.999-.2116-1.3602.0423-.4676-.0635-.7439-.4022-.999-.3599-.2762-.4657-.595-.508-1.4239-.0212-.6588-.1694-1.2114-.36-1.4239-.4656-.4676-.4233-.7863.0847-.6163.487.1487.487.1275.2117-.6164-.1693-.4888-.1482-.5313.4869-.595.508-.0425.6985-.17.7409-.5313.0423-.2763-.0212-.4889-.1482-.4889s-.2328-.1275-.2328-.2762c0-.1488-.1906-.4464-.4446-.6376-.2328-.2126-.381-.4463-.2963-.5313.0635-.0638.1905-.0213.2752.1062.0846.1275.4022.2976.7197.3826.5292.1275.5715.085.6985-.6164.0847-.4038.1694-.9776.1905-1.275 0-.2764.0847-.4677.1482-.425.0635.0423.2329-.1702.381-.4677.1694-.4038.1694-.6376-.0211-.999a7.8057 7.8057 0 00-.254-.4675c-.0212 0 .381-.3825.8679-.8076.4868-.4463 1.0372-.7863 1.2489-.7438.5292.085.8679-1.1477.8467-2.9542-.0211-.935.0635-1.5514.1905-1.5514s.3176-.17.4234-.3826c.127-.2125.3387-.6376.508-.9563.3176-.5739.1694-1.6365-.2116-1.6365-.127 0-.508-.2338-.8256-.51-.7197-.595-2.3073-.914-2.5825-.51-.1059.1911-.1694.1486-.1694-.17 0-.8928-1.884-.914-1.9263-.0214-.0212.3613-.0423.3825-.127.1063-.0423-.2126-.1905-.3826-.3387-.3826-.127 0-.0423-.1488.1905-.3188.4657-.3613.0635-.4463-.5715-.1063-.5292.2976-.508-.0212.0423-.7225.2329-.2976.3387-.5526.2329-.5526-.1059 0-.3176-.2976-.4657-.6376-.3176-.7438-1.1643-1.2752-2.0745-1.2752-.4022 0-.8468-.2337-1.2701-.6375-.4446-.4039-.7833-.5739-1.0161-.4889-.2329.085-.3175.0425-.2329-.085.1906-.2975-.762-.9138-1.0795-.7226-.3387.1913-1.7358.0213-1.7358-.2125 0-.1063-.2964-.1913-.6563-.1913-.4868 0-.635.085-.5715.3826.0212.1913-.0423.3825-.1482.4038-.127.0425-.1905-.2338-.1905-.5738.0212-.595.0212-.595-.4657-.2763-.2752.17-.5927.255-.7197.17-.127-.0638-.2117.0638-.2117.2975 0 .255-.0847.4463-.2117.4463-.1058 0-.2117.1488-.2117.3613 0 .2976-.0423.2976-.4445-.0637-.4657-.4038-.4657-.4038-.2117.085.1482.2763.381.8501.5504 1.3177.2752.765.254.85-.2117 1.3601-.5927.6376-.9102 1.8065-.5292 2.0403.1482.085.1905.3613.0847.7226-.1059.4463 0 .7226.5715 1.3814.4022.4463 1.0584 1.254 1.4606 1.8278.889 1.2114 1.9052 2.2315 2.2439 2.2315.4445 0 1.3547.8926 1.6723 1.6152.1481.3826.4445 1.2964.6138 2.0403 1.0373 4.123 2.392 8.246 2.8154 8.6073.4234.34 1.0373 1.509 1.2066 2.3378.0847.3826.254.744.3599.8076.0847.0638.3387.489.5292.914.3387.7225 1.757 2.274 1.9263 2.0827.0423-.0213-.0635-.3826-.2328-.7864l-.0001.0001zm62.7429-4.867c0-.34-.2752-.2337-1.0584.4464l-.741.6588.9103-.4463c.4869-.255.889-.5526.889-.6588h.0001zm5.1227-3.0178c.381-.2976 1.0373-.7014 1.4395-.914.4022-.1912.889-.4887 1.0584-.6375.1693-.1488.7409-.4888 1.27-.765 2.3286-1.2327 4.8053-3.528 4.9535-4.5482.0423-.3613.1693-.8713.2963-1.1689.127-.3188.127-.6163.0212-.765-.127-.17-.0424-.5314.2328-.999.254-.425.4869-1.1689.5292-1.6577l.1059-.9138-.8044.935c-1.8417 2.1891-2.2227 2.3591-2.8577 1.2327-.4022-.7013-.4022-.7013.127-1.1476l.5292-.4676-.4446-.1912c-.254-.1276-.6138-.1488-.7832-.0638-.1693.085-.6774.3188-1.1007.5313-.4446.2125-.8044.51-.8044.6376 0 .1488-.2752.3188-.614.3613-.4444.0638-.5926.0212-.508-.1913.0636-.1487.0212-.2763-.0846-.2763-.2117 0-1.7147.999-2.138 1.424-.3387.3188-.5504.3613-.3599.0637.2329-.3613 0-.2338-.7409.425-.381.3401-1.2277.7652-1.884.9565-1.6722.4463-2.9212 1.1264-3.514 1.8915-.2751.3612-.6561.8288-.8466 1.0413-.1694.1913-.635.8714-.995 1.4877-.6773 1.1264-1.0795 1.5515-1.9262 2.1253-.6563.4463-.2752.7226.5503.3826.381-.17 1.0161-.34 1.4183-.3826.4022-.0638 1.0796-.255 1.4818-.425.4022-.1913 1.3548-.4676 2.0957-.595 1.1219-.2127 1.4182-.2127 1.651.0211.233.2338.233.3826.0424.7651l-.254.4463.7832-.4463c.4234-.255.762-.3825.762-.3188 0 .1488-.6773.914-1.8416 2.104-.995.999-.889 1.4877.1906.914.3598-.1914.4233-.1914.3386.0637-.1693.4463 1.6935-.2125 2.625-.935h-.0001zm-41.8497-1.764c.5715-.085 1.1854-.255 1.3971-.3826.995-.7013 2.6037-2.4228 2.8577-3.039.1694-.4039.4446-.7227.5927-.7227.508 0 .9738-.6376.9738-1.339 0-.3825.0846-.7863.1693-.8925.1905-.2976 2.1804-1.594 2.4132-1.594.4445 0 .9737-1.8702.9314-3.273-.0423-1.1688.0423-1.5514.4234-2.104.4657-.7013 2.3497-2.4015 3.514-3.209.6985-.4677 2.138-2.4229 2.3708-3.2305.127-.4038.0635-.4463-.4446-.3613-.3387.0425-.9949.1912-1.4818.3188-.9737.2337-1.6723-.0425-1.4606-.595.0635-.17-.254-.595-.7197-.9777-.4657-.3613-.8467-.8502-.8467-1.0627 0-.2125-.1905-.5738-.4234-.8076-.2328-.2338-.4234-.6588-.4234-.9564 0-.2975-.1905-.7013-.4233-.8926-.233-.2125-.4234-.4888-.4234-.6376 0-.34-.8255-1.9765-1.2277-2.4653-.1694-.1912-.254-.425-.1906-.4888.0847-.085.3176.085.5504.3613.4022.4676.4234.4676.4445.1063 0-.5526 2.0322 2.4015 2.2227 3.2516.0635.34.2752.6801.4446.744.1693.0636.4022.34.508.595.127.2763.2963.6376.4022.8076.127.17.2752.68.3387 1.1264.127.765.5504 1.0626.8467.5738.0847-.1275.254-.2125.381-.17.1482.0212.5928-.1063 1.0161-.2976.4234-.1912.9526-.4038 1.2066-.4675.254-.085.4657-.2338.4657-.34 0-.1063.2964-.2339.635-.3189.36-.085.6351-.2337.6351-.34 0-.1063.1482-.1913.3175-.1913.1694 0 .3176-.085.3176-.17 0-.1063.2963-.51.635-.8926.3599-.3826.635-.765.635-.8289-.0211-.2975-.3598-.6163-.7408-.68-.2329-.0426-.5292-.3189-.6562-.595l-.254-.5102-.2753.4676c-.3386.51-1.3336.6163-1.7358.17-.7408-.7864-1.6087-2.274-1.5029-2.5504.1693-.4675.9526-.34 1.1854.17.3175.6802 1.4818 1.2327 2.265 1.0627.508-.1063.6563-.0638.6563.17 0 .3826.889.5738 2.7518.5738 1.1431 0 1.4818.085 1.7993.4251.2117.2338.4446.3613.5292.3188.0847-.0638.2117.0425.2964.2125.0635.1913.254.255.4869.17.3387-.1275.3387-.1062.1058.2126-.1693.1912-.2328.4463-.1482.5738.2117.3613.6774.2338.8044-.2125.2117-.8076.508-.425.5504.68.0212 1.1477.4657 2.9754.995 4.1443.1693.3613.2963.8076.2963.999 0 .4675.2752.425.762-.1276.6774-.8076.9314-1.4027.9314-2.189 0-.4038.1059-.7439.2117-.7439.127 0 .6562-.425 1.2066-.9563.5292-.5314 1.0373-.9564 1.143-.9564.1059 0 .2753-.17.3388-.3613.2328-.6376.5927-.8714 1.1642-.8076.4234.0425.5293-.0213.4446-.2338-.127-.34-.0424-.3613.4445-.17.1905.0637.3387.2975.3387.5313 0 .2125.1694.51.381.6588.508.34.889 1.084.889 1.6365 0 .5313.127.5526.5716.1063.4658-.4464.6986-.1488 1.0161 1.339.2329 1.105.2752 1.1688.4234.6587.1905-.765.4022-.7438 1.3124.1488.4234.4038.8468.7438.9526.7438s.127.1063.0635.2126c-.0635.1275-.0212.2125.1058.2125s.2752-.1488.3387-.3188c.0847-.17.2964-.3188.487-.3188.5926 0 .8678-.4463.8678-1.424 0-.7225-.1058-.9776-.5292-1.2538-.614-.4038-.8044-.914-.614-1.6578.1483-.595.7198-.8713 1.6301-.7863.3175.0212.8255-.085 1.1007-.2763.2752-.1913.741-.34 1.0161-.34.5716 0 1.8417-1.3177 1.8417-1.9128 0-.2125.148-.4888.3175-.6376.2752-.2125.3598-1.4664.1058-1.4452-.381.0213-.487-.085-.2328-.2337.4445-.2976.0635-.6589-.6774-.6589-.487 0-.5927-.0637-.381-.1912.1693-.1063.4233-.1488.5927-.085.4868.1912.2963-.2976-.3599-.9352-.7409-.7013-.7832-.9776-.2328-1.5302.381-.3825.381-.425.0635-.5526-.1906-.0637-.381-.0212-.4234.085-.127.3614-.4445.2763-1.0584-.3187-.381-.3613-.487-.595-.2964-.6589.127-.0637.254-.2337.254-.4038 0-.17.1059-.2975.2117-.2975.127 0 .2117-.1488.2117-.3188 0-.1913.1905-.3188.4445-.3188.3599 0 .4234.1063.3387.4463-.1058.3826-.0423.425.3387.2976.508-.17 1.2066-.17 1.3548-.0425.0423.0637.1058.2975.127.5525.0212.255.1694.4463.381.4463.4446 0 .741.3613.9738 1.1902.1482.595.2328.6376.6562.4888.4445-.17.4657-.2125.1693-.765-.1693-.34-.635-.914-1.0584-1.2965-.7197-.6376-.7409-.7226-.4657-1.1477.1905-.2763.254-.595.1482-.8926-.2117-.595.2117-1.4452.6139-1.19 1.2066.7437 1.0372-3.6344-.1905-4.9733-.2117-.255-.5504-.7226-.741-1.0839-.1693-.34-.5503-.8926-.8043-1.19-.5292-.6165-1.4395-.999-1.4395-.6377 0 .34-.762.2763-1.0584-.0638-.127-.17-.4445-.34-.6985-.3825-.381-.0425-.487-.255-.614-1.1902-.1058-.6163-.3598-1.5514-.5926-2.0615-.2329-.51-.4234-1.02-.4234-1.1264 0-.085.3387-.34.7409-.5313.4022-.1913.7409-.4676.7409-.5738 0-.1488.3599-.1913 1.016-.1275.5504.0637.8468.0637.6563 0-.1905-.0638-.7197-.6376-1.1431-1.2965-.7409-1.1264-.762-1.2114-.4022-1.4877.3175-.2337.4445-.2125.8679.1913.7197.6801.5927.085-.1482-.6376-.6985-.7013-.8255-1.1689-.2963-1.0626.1693.0425.2963.1275.254.1913-.0423.0637.2752.4038.6774.7438.9949.829 1.3336 1.1477 1.1854 1.1477-.1693 0 .8679 1.6364 1.4183 2.2528.2117.255.4233.595.4445.7438.1694.9776 1.143 2.2103 2.9212 3.7192 1.0796.8927 2.0957 1.7853 2.2439 1.9765.2328.2763.254.2763.254-.0212 0-.17-.1905-.4888-.4234-.7013-.254-.2126-.4022-.51-.3387-.6589.0635-.1488-.0423-.3825-.2116-.5313-.1694-.1488-.2964-.4038-.254-.595.0211-.1914-.3176-.7227-.7621-1.1902-.4446-.4676-1.0161-1.0627-1.249-1.339-.254-.255-.5503-.4675-.6773-.4675-.1059 0-.7621-.5526-1.4395-1.254-1.1642-1.19-1.2066-1.275-.9526-1.8064.1906-.4463.381-.5738.7198-.4888.4233.0637.381-.0425-.381-1.169-.4658-.7013-.8468-1.4876-.8468-1.7852 0-.425-.1905-.6163-.7832-.8926-.4234-.1912-.8044-.425-.868-.4888-.1904-.1913-1.5875-.7226-1.8204-.6588-.127.0212-.4022-.17-.635-.4038l-.4022-.4676.6138.1488c.5927.1488.5716.1275-.2752-.595-.508-.425-.995-.7652-1.122-.7652-.2751 0-1.3335-.85-1.1006-.8714.7197-.085 1.0796-.0637 1.4183.085.1905.085.3598.1063.3598.0213 0-.2763-.6985-.935-.995-.935-.1481 0-.4868-.255-.762-.5527-.4022-.4888-1.4182-1.1476-1.7358-1.1476-.3387 0-.0211.4038.5928.7013.508.255.5715.34.254.34-.2329.0213-.7197-.17-1.0796-.3825-.6562-.4038-2.6037-.9139-2.8577-.7438-.0847.0425-.4446-.0213-.8044-.1488-.6774-.2338-1.7147-.1063-1.7147.2125 0 .085.381.34.8468.5526.889.4038 1.4183.8713 1.2066 1.1051-.0847.0638-.4446-.0212-.8044-.2125-.5292-.255-.8044-.2763-1.1855-.085l-.508.2338.4869.4038.4869.4038-.5293-.1488c-.2963-.0638-.635-.1488-.762-.17-.1482-.0425-.6139-.3188-1.0584-.6163-1.122-.765-1.6512-.8289-1.7358-.2126-.0635.4676-.6774.6801-.6774.2338 0-.1275-.1482-.1913-.2964-.1275-.3598.1488-1.6088-.425-1.6088-.7226 0-.1063-.1481-.1913-.3598-.1913-.3175 0-.3175.0213 0 .3826.2117.2125.3598.5313.3598.7013-.0211.255-.0635.255-.2752-.0212-.381-.4676-1.1854-.8927-1.4182-.7439-.127.085-.2117.2763-.2117.4463 0 .17.0635.2763.1693.2338.2329-.17 1.249.7651 1.4183 1.2964.127.4676.1059.4888-.2963.2763-.2964-.17-.4446-.17-.4446-.0212 0 .1062-.1482.2125-.3387.2125-.254 0-.2117.1062.1482.4038.2752.2338.4445.4675.381.5313-.2116.2338-2.1591-.7864-2.9212-1.509-.4022-.3825-.889-.7013-1.1007-.7013-.1906 0-.5504-.0637-.7621-.1488-.3175-.1062-.2964-.0425.1058.4038.254.2763.4022.5951.3176.659-.2117.2337-1.2278.17-1.4818-.085-.2964-.2977-.995-.0639-.7832.255.0846.1487 0 .1912-.2964.1062-.3387-.1063-.4234-.0213-.508.51-.0635.34-.0212.6376.0846.6376.0847 0 .1694.1063.1694.2125 0 .4251-.4234.1913-.741-.425-.1693-.34-.3174-.68-.3174-.7439 0-.0637-.2329-.5738-.508-1.1476-.3388-.6588-.9103-1.3177-1.5665-1.8065-1.0584-.765-2.0533-1.0839-1.5453-.4675.1693.1912.1693.34.0423.425-.1058.085-.3387-.0638-.508-.2975-.1694-.255-.4234-.3826-.635-.3188-.2117.085-.36-.0213-.4658-.2976-.127-.4463-.5292-.6163-.5292-.255 0 .3613 1.0796 1.509 1.4183 1.509.1905 0 .2752.1275.2117.2975-.0635.1488 0 .4038.127.5313s.1482.2975.0635.3826c-.0847.085-.2328.0212-.3387-.1488-.1482-.2125-.2117-.2338-.2117-.0425 0 .1275-.1905.4463-.4445.7013-.5716.5738-.4022 1.3602.4234 2.104.3387.2976.6562.7014.7197.8927.1693.4675.0635.4888-.3175.085-.254-.2338-.36-.2338-.6986 0-.381.2763-.381.2975 0 .7226.2117.2337.8044.6375 1.3124.8926.508.255.9103.5313.9103.6163 0 .2338 1.2912 1.5727 1.5664 1.594.6562.0637.762.1062.762.2763 0 .1487-.4233.17-1.1007.0425-.2752-.0425-1.651-1.4665-1.651-1.679 0-.1063-.2118-.255-.4658-.3188-.2752-.0425-.6774-.17-.9102-.255-.3387-.1063-.3599-.1063-.1059.085.254.1913.2752.2763.0424.425-.2117.1275-.127.2338.3598.4038.3599.1276.6562.2763.6562.34 0 .1701-1.3336-.1274-1.6934-.3825-.1694-.1062-.0635.0638.2328.4038.3176.3613.7198.8926.9314 1.2114.2752.4676.4657.574.868.4676.381-.1063.6562.0213 1.1219.5313.3386.3613.7408.659.889.659.2117 0 .2117.0636.0212.255-.1905.1912-.4234.085-.995-.4677-.8043-.7863-.9313-.6588-.4021.4038.7197 1.4665.5292 1.9128-.6986 1.594-.5927-.17-.635-.51-.0635-.51.9103 0 .4657-.829-2.0321-3.7193-.2964-.34-.6774-.8926-.8468-1.2114-.1905-.3613-.4868-.595-.7409-.595-.4233 0-.4445.0212-.1058.5312.1905.2763.3387.7651.3387 1.0627 0 .2975.1058.5313.2117.5313.127 0 .3387.2338.4657.5313s.3175.5313.4233.5313c.2117 0 1.2278 1.0414 1.2278 1.2752 0 .085-.5715-.1275-1.27-.4463-1.6936-.8289-2.117-.8076-1.3337.0637.2117.255.254.3826.0847.3826-.1482 0-.1905.1062-.127.2125.1905.2975-.1694.2763-.4869-.0425-.1905-.1913-.254-.1913-.254 0 0 .1488-.1482.255-.3175.255-.1694 0-.3176.1063-.3176.2338s-.254.17-.635.1275c-.5504-.1062-.6562-.0212-.889.6164-.127.4038-.36.7226-.5081.7226-.3387 0-.7833-.5739-.635-.8289.0846-.1063.021-.2763-.106-.34-.4233-.2763-.381.0212.1483 1.02.5503 1.0415.5292 1.1477-.127.7864-.3176-.17-.4234-.1275-.5293.2126-.0846.255-.0423.5738.1059.7438.3175.4038-.0847.6163-.635.3188-.2752-.1488-.4234-.1488-.4234 0 0 .1063.1482.2125.3175.2125s.3175.085.3175.17c0 .7014-1.1642.2338-1.5241-.6375-.1482-.3188-.381-.595-.508-.595-.1482 0-.4022-.2339-.5927-.5314-.4022-.6164-.4022-.6164.5715-.2126.4234.17 1.016.3188 1.3124.3188.4234 0 .5292-.1062.5292-.5313 0-.2975-.0846-.5313-.1693-.5313-.1058 0-.635-.2975-1.1643-.6588-.5503-.3613-1.143-.595-1.3124-.5314-.381.1488-2.011-.4675-2.011-.765 0-.1063.1059-.1276.254-.0426.1482.085.1694.0638.0847-.085-.1482-.2337-.6562-.1275-1.122.2338-.1904.1275-.2751.1275-.2751-.0425 0-.1275-.0847-.2338-.2117-.2338-.1058 0-.127.1488-.0635.3613.0847.2338.0635.2976-.1058.1913-.1482-.085-.254-.0425-.254.085s-.233.34-.5293.4676c-.2963.1275-.5292.4038-.5292.6163 0 .2125-.0846.425-.1905.4888-.1058.0638-.1482.34-.0635.595.0635.2976.0424.404-.127.2976-.1482-.085-.2752-.0425-.2752.0638-.0212.1275-.0423.2975-.0635.4038-.0423.085-.127.7013-.2117 1.3814-.127.8501-.2752 1.2114-.4868 1.2114-.3387 0-.9103.51-.9103.8076 0 .1275-.127.2763-.254.3188-.1905.085-.1693.1275.0635.1275.254.0213.3175.2338.2752 1.084-.0635.935-.0212 1.0626.3387 1.0626.3598 0 .4869-.17.4657-.6376 0-.0638.127-.2338.2963-.3826.2329-.2125.3387-.1487.614.3613.1693.3613.3175.7651.3175.9352 0 .17.148.425.3175.5738.1693.1275.2963.3188.2752.3825-.0424.425.0846.4676.4868.17.3387-.2337.4657-.5525.487-1.1689 0-.4888-.0424-.8713-.1271-.8713-.1058 0-.1694-.085-.1694-.2125 0-.1063.1482-.2126.3176-.2126.4022 0 .4233-.34.0211-.4888-.1481-.0637-.3387-.425-.4022-.8288-.0846-.5314.0212-.8289.36-1.1902.275-.3188.4444-.7863.4444-1.2752 0-.6375.0847-.8076.4446-.85.4657-.0638 1.143.4462 1.143.85 0 .1276-.0634.17-.1481.085-.0847-.0637-.3175.1913-.508.6164-.2964.595-.3176.8713-.127 1.509.2328.7863.8255 1.275 1.2277 1.02.4445-.255 1.63-.3187 1.7781-.085.2329.3826-.3175.8502-1.0584.8502-.4445 0-.6774.1062-.6774.3187 0 .17.0847.3188.1694.3188.2328 0 .381.829.1693.9777-.127.0637-.3387 0-.508-.1276-.2752-.2337-.3175-.1487-.3175.4251 0 .4888.1058.7013.4233.7864 1.0584.2762.0635.6375-1.4394.51-.254-.0212-.614.1063-.8044.2763-.3599.3826-1.8417.2975-2.3285-.1063-.2117-.17-.2964-.17-.2964 0 0 .1276.1059.2338.2117.2338.3175 0 .254.3613-.0423.3826-1.0796.0637-1.6512.3825-1.6512.8926 0 .2125-.1905.4675-.4233.5313-.233.0638-.4234.255-.4234.4038 0 .3188-1.503 1.169-1.8416 1.0414-.1482-.0638-.2752 0-.2752.1275s.127.2338.2963.2338c.1694 0 .508.3188.741.7226.3598.5738.4021.8288.2328 1.2964-.1905.51-.2964.5526-1.4183.51-1.7146-.0424-1.6723-.0637-1.5876.744.0423.4037 0 .8925-.127 1.0838-.254.4888.1481 1.3814.6562 1.3814.1905 0 .3598.1063.3598.2126 0 .3613 1.5242 0 2.0534-.4889.254-.2337.4233-.51.3598-.6163-.1905-.3188.3387-1.19.762-1.2964.2118-.0638.4235-.3188.4658-.595.0423-.3826.1905-.51.6139-.51.3175-.0214.8044-.1914 1.1219-.3827.5504-.3825.5504-.3613 1.4606.5526.4869.51 1.122.999 1.376 1.084.254.085.4656.255.4656.3612 0 .255.5716.255.741-.0213.0634-.1063-.1906-.3613-.5716-.5526-1.1643-.595-2.1168-2.0615-1.503-2.2953.36-.1487.6986.0213 1.0585.5101.127.1913.6773.6163 1.1854.9351.5715.3826.9314.744.889.9564-.0635.4463.6774 1.509 1.0796 1.509.254 0 .2964-.1488.1906-.68-.0847-.3827-.0847-.6377 0-.5527.1058.085.2963.0637.4657-.0638.148-.1275.4657-.1912.7197-.1275.6985.1913 1.0584-.0425.8255-.4888-.2328-.4463-.0423-1.7002.254-1.7002.1059 0 .127-.085.0636-.2125-.0635-.1063-.0212-.2126.0846-.2126.127 0 .2329-.1487.2329-.34 0-.2763.1482-.3188.7197-.2125.4657.085 1.016.0212 1.524-.1913.4235-.17.8469-.3188.9527-.3188.2117 0 .1058.8926-.127 1.2752-.0635.1062-.0423.2125.0847.2125.1058 0 .5927.255 1.0584.5738.6139.3826.8679.7226.8679 1.0626 0 .4464-.1059.489-.9314.489-.487 0-1.2066-.1064-1.5876-.2339-.7198-.255-1.863.0425-2.2016.595-.0846.1488-.4657.2763-.8467.2763s-.5715.085-.4445.17.2963.404.3598.7227c.0847.3187.3599.6375.635.7226.5928.1912 2.0958.2762 2.371.1062.1058-.0637.381-.1275.6138-.1275.3387-.0425.381.085.2752 1.0626-.1905 1.8915-.3598 2.019-2.4978 1.9128-1.1643-.0425-2.0745-.1913-2.498-.425-.9101-.4676-1.6087-.3614-1.6087.255 0 .2337-.0635.51-.1482.595-.1905.2126-1.6723-.34-2.1168-.7863-.2117-.2125-.6562-.3826-.9737-.3826-.6986 0-1.4183-.6588-1.1008-.9776.1058-.1063.1482-.4038.0847-.6588-.1059-.425-.233-.4676-1.0161-.3826-.4657.0638-1.3336.1488-1.9052.1913-.5503.0638-1.2489.255-1.524.4463-.5928.3826-1.9052.425-2.0534.0638-.0847-.1913-.127-.17-.127.0637-.0212.17-.3599.6164-.762.9777-.4658.4038-.741.85-.741 1.169 0 .5524-.6985 1.445-1.1219 1.445-.1482 0-.4868.3613-.7832.8076-.2964.4251-.5715.829-.6562.8927-.4022.34-.5504 1.0626-.4657 2.1252.0635.7014.0211 1.3815-.127 1.6577-.3176.5951.1058 1.6153 1.1007 2.5504.1905.1913.3599.4675.3599.595 0 .1276.4022.574.9102.999.868.7013.9738.7438 2.3709.7013.8255-.0213 1.9898-.2338 2.6248-.4463l1.1643-.3826.4022.51c.2752.3401.635.5102 1.0584.5102.9314 0 1.1854.5313.762 1.6577-.3175.8926-.1904 1.849.254 1.849.2753 0 .6563.8713.7621 1.679.0424.425.127 1.0413.1694 1.3814.0847.425-.0212.765-.2964 1.0626-.2116.255-.5503.8714-.7197 1.3814-.2752.829-.2752 1.0414 0 1.7002.2964.7014.4022 1.6152.5504 5.2282.0423 1.1902.254 1.7002.5927 1.4877.0635-.0637.5927-.1488 1.143-.2125h.0001zm10.0126-4.4206c.6774-.5313 3.1117-4.7819 2.8789-5.0156-.0424-.0638-.3599.2125-.6986.595-.3175.3613-.8044.7226-1.0796.7651-.6773.1276-1.0584.5101-1.0584 1.0627 0 .2763-.2328.765-.508 1.1051-.4657.5526-.635 1.0627-.5716 1.7002.0212.2763.5504.17 1.0373-.2125zm30.4823-7.5235c-.2116-.0425-.381-.1912-.381-.2975 0-.1275-.3175-.1488-.7409-.0638-.4868.085-.7409.0425-.7409-.1062 0-.1275-.1905-.2338-.4233-.2338-.381 0-.635.4038-.254.4463.4656.0425 1.1854.2125 1.2912.2975.0423.0638.4234.085.8467.085.4234-.0212.5928-.0637.4022-.1275zm12.0236-1.02c.741-1.0415.8044-1.4878.254-1.7428-.381-.17-.635-.1275-1.1219.17-.3387.2125-.8044.34-.9949.2763-.2117-.0638-.381-.0213-.381.1062 0 .1276.3175.2976.6986.404.5715.1486.6773.2761.6773.8287 0 .8076.2752.8076.868-.0425h-.0001zm-14.5638-.6164c.1906-.4038.1482-.595-.1905-.9564-.2116-.2338-.381-.5313-.3598-.6376.0846-.2975-1.6723-2.2953-2.138-2.4228-.3599-.085-.3599-.0213.1058.6588.2752.4038.508.914.508 1.1264 0 .2126.1059.4463.2117.5101.127.0638.2117.3825.2117.68 0 .5952.741 1.5515 1.1643 1.5515.1482 0 .3598-.2337.4868-.51zm6.6257-.765c.0847 0 .1905.17.2329.3824.0635.3188.0846.3188.2117 0 .0846-.1913 0-.51-.1694-.7438-.2752-.3613-.3175-.3613-.6985.1275-.2117.2975-.3387.68-.2752.8501.0846.2338.1693.2125.3175-.1488.127-.255.2964-.4675.381-.4675zm-1.8204-.17c-.1482-.17 1.27-1.4878 1.4606-1.3816.1693.085.1693.0638 0-.1275-.3387-.3825-.106-1.4664.3598-1.6152.381-.1275.381-.17.0635-.4676-.3175-.3188-.3598-.3188-.5292 0-.1058.1913-.5292.5101-.9314.7014-.4022.1913-.7409.425-.7409.5313s-.1058.1913-.254.1913c-.127 0-.4234.17-.6562.3613-.2117.2125-.5504.3825-.7409.3825-.254 0-.3599.2338-.4234.8926-.0423.744 0 .8926.2752.7864.1694-.0638.3175-.0213.3175.1275 0 .1275.0847.17.2117.1063.1059-.0638.381-.0425.5716.085.2752.1487.4657.1062.7197-.1488.1905-.1913.3175-.3825.2964-.425zm7.8322-.4465c.0635-.1062.0212-.255-.0847-.3187-.2751-.17-.889.085-.7408.3187.148.255.6562.255.8255 0zm-12.4893-1.934c-.0211-.5525-.1693-.9988-.4868-1.3389-.254-.2763-.4657-.6588-.4657-.85 0-.1914-.1482-.3614-.3176-.3614-.2963 0-.2963.0638 0 .6376.1694.34.3176.914.3176 1.2752 0 .51.5927 1.4877.9102 1.4877.0423 0 .0635-.3826.0423-.8502zm-9.314-1.6577c0-.6588-.4022-.595-.487.085-.0634.3826 0 .5314.2118.4676.1482-.0638.2752-.2975.2752-.5526zm19.4536-.17c.0635-.17.2117-.2763.3176-.1913.127.0638.1905-.0637.1693-.2975-.0212-.34-.1058-.3613-.508-.17-.2752.1275-.487.3825-.487.6163.0001.4676.3388.51.5081.0425zm-88.3988-.1488c.1694-.2125.127-.2762-.1905-.2762-.4022 0-.508.1487-.254.4038.1693.1912.1905.1912.4445-.1276zm-1.2066-.765c-.3175-.4464-.4022-.7864-.2963-1.4027.1482-.9352-.0847-1.169-1.3125-1.169-.7832 0-.8467-.0425-.8255-.5738 0-.34.1693-.8926.3598-1.2539.1906-.3613.2964-.7226.2329-.7863-.254-.2338-1.249.2337-1.3124.6163-.127.595-.3599.7863-1.2066.8714-.635.0637-.868-.0425-1.3971-.6164-.635-.68-.6563-.765-.5504-2.189.1482-1.8277.2117-2.019 1.0584-2.5503.5292-.34.8679-.4038 1.5241-.2976.635.1063.889.0638 1.0796-.1912.254-.3613 1.503-.4038 1.8416-.0638.1059.1063.3176.1488.4657.1063.3387-.1488.5716.2125.8468 1.2964.2117.85.6774 1.0201.5927.2125-.1905-2.019-.127-2.3165.5927-2.869 1.016-.7652 2.1168-1.9766 1.9263-2.104-.2328-.17-.2752-1.1265-.0212-.9778.1059.085.1906-.0425.2117-.255.0212-.2763.0635-.2338.1905.1488.1694.5313.1694.51.1906-.1063.0211-.4463.0846-.5526.2116-.34.1482.2125.254.1487.4657-.3188.1906-.3826.5504-.6589.995-.765.381-.1064.635-.2764.5927-.3614-.1905-.2976.8679-1.2964 1.3547-1.2964.2329 0 .4234-.085.4234-.1913 0-.1063.2964-.2338.635-.2976.508-.1062.6351-.255.6351-.6588 0-.2975-.1693-.6376-.3599-.7438-.3175-.1913-.2963-.2126.2117-.2338.381 0 .5504-.085.4446-.2338-.1906-.34-1.1008-.0425-2.0745.68-1.1008.8077-1.249.6164-.2117-.2762 1.4818-1.3177 1.9898-1.5302 3.3234-1.4664.8679.0425 1.3548-.0425 1.5876-.255.1905-.17.5504-.3614.762-.3826.5081-.1063.614-.7864.2118-1.2114-.2752-.2763-.3599-.255-.6986.0425-.3175.2763-.4234.2975-.4869.085-.0635-.17.1694-.3826.5504-.5313.5927-.2338.6139-.255.2117-.3826-.4869-.1487-1.0372-1.3176-.6774-1.424.1482-.0637.1482-.255-.0212-.5737-.1481-.2763-.2116-.7439-.127-1.1477l.1482-.68-.381.5312c-.1905.2976-.381.5526-.381.574-.0212.0211-.254.085-.5504.17-.508.1274-.5504.0636-.5292-.5739 0-.3826-.0847-.765-.2117-.85-.127-.1064-.1059-.17.0635-.17.127 0 .254-.1914.254-.4252 0-.2338-.0847-.425-.2117-.425-.1058 0-.2117-.1914-.2117-.425 0-.2764-.1481-.425-.381-.425-.2117 0-.4869-.1064-.635-.2552-.1905-.1913-.2752-.1488-.3599.17-.0847.2125-.2328.5738-.3387.7651-.1058.2125-.1905.51-.1905.6588 0 .17-.1905.4676-.4234.6801-.2752.255-.381.5313-.2963.7864.2328.7863-.127 1.5727-.9738 2.104-.7197.4463-.8467.6588-1.0584 1.7427-.1905.9777-.3175 1.2114-.5504 1.1264-.1905-.0637-.4233-.1275-.5292-.1275-.127 0-.1481-.085-.0846-.2125.0635-.1063.0211-.3826-.1059-.6164-.1693-.34-.127-.595.2117-1.19l.4234-.744h-.4446c-.4657 0-1.016-.4463-1.3547-1.1476-.1694-.3188-.4022-.425-.8468-.3826-.4657.0638-.5503 0-.381-.2125.1058-.1487.2752-.51.3387-.765.1058-.4889.1058-.4889-.2964-.1276-.2328.2125-.4022.255-.4022.1275 0-.1487.0847-.255.1906-.255.1058 0 .254-.255.3387-.5738.1693-.6589 2.4555-3.188 2.8365-3.1242.1482.0425.1482 0 .0212-.0637-.254-.1276-.2752-.914-.0212-.914.1058 0 .2329.1063.2752.2551.0635.1488.2328.1913.508.0638.2117-.085.4869-.1488.5927-.1275.0847.0212.2964-.0638.4657-.2126.254-.1912.2117-.34-.1481-.85-.381-.5314-.381-.6164-.0847-.6164.1905 0 .4022.1913.4657.425.0847.34.1905.3826.508.1913.2117-.1062.4022-.3613.4022-.5526 0-.2125.127-.2975.4234-.2125.2329.0638.381.0213.3175-.0637-.0635-.1063-.0211-.2338.0847-.2976.1058-.085.2329.0213.2752.1913.1058.5526 1.016-.2338 1.016-.8714 0-.3188.127-.51.3176-.51.1905 0 .3175-.1913.3175-.51 0-.659-.381-.914-.5715-.4039-.1482.425-1.5453 1.9765-1.7782 1.9765-.1905 0 .0424-1.0414.254-1.19.1059-.0639.1906-.2127.1906-.3614 0-.17-.0635-.17-.254.0212-.4234.425-.5928.2763-.3387-.2763.3598-.8288 0-.9138-.5928-.1487-.2963.3825-.6773.68-.8467.68-.1693 0-.2963.1913-.2963.4251 0 .2125-.1906.51-.4234.6376-.3387.17-.4234.17-.4234-.085 0-.17.1059-.3826.254-.4676.3176-.1913-.4022-.7438-.7832-.595-.1693.0637-.4022-.1063-.5715-.4039-.2329-.425-.3599-.4888-.741-.34-.2751.1063-.4868.2763-.4868.425 0 .1276-.1905.4676-.4234.7651-.4657.6164-.508.489-.2328-.5313.1693-.595.1482-.68-.1694-.68-.4445 0-1.0795-.6589-.762-.7864.6985-.255.7832-.425.4657-1.0414-.1694-.34-.254-.7438-.2117-.8926.0847-.1913-.0423-.2338-.4445-.1275-.614.1487-.762-.255-.2752-.7439.2117-.2338.1482-.255-.2752-.1062-.2964.1062-.7832.17-1.1008.1912-.2963 0-.5503.085-.5292.2126.0212.1062-.0635.1912-.2116.2125-.127 0-.3176.0637-.4022.1488-.2329.255-.5504.1912-.4022-.0638.2328-.3826.508-2.529.3387-2.529-.254 0-.614-1.0627-.4234-1.1902.2752-.17.1482-1.3602-.1482-1.3602-.127 0-.3599.1488-.508.3188-.1482.17-.381.2975-.508.2763-.127-.0213-.6351.17-1.1432.425-.4868.2763-.9949.425-1.1007.3613-.381-.2338-2.5614 2.359-2.5402 3.018 0 .1062-.254.255-.5715.3612-.4234.1488-.614.1063-.7833-.1275-.3387-.4676-1.1854-.1063-1.1854.4888 0 .2975-.1058.4038-.2964.34-.1693-.0637-.4233.0213-.5503.1913-.2117.255-.1482.2976.4445.2976h.6986l-.6986.7226c-.381.4038-.995.7863-1.376.8713-.9737.1913-2.9847 1.254-3.0058 1.6152-.0212.17-.0635.4038-.0847.51-.0212.1276-.0423.2764-.0212.3614 0 .0637-.3175.425-.7197.765-.6562.5952-.6774.6802-.4022 1.0415.1905.2125.2752.255.1905.1275-.0847-.1913-.0212-.2338.2329-.1275.3175.1275.3175.1487-.0424.4038-.2117.1487-.5292.4038-.6985.5525-.1694.1488-.5504.4464-.8468.659-.6985.51-.4233.4037 1.0373-.3614.635-.34 1.2913-.7864 1.4394-.9989.1482-.2338.3599-.4038.4657-.4038.1059 0 .6563-.2763 1.2066-.6376 1.0796-.68 2.2227-.935 1.4183-.3188-.2117.17-.2963.3188-.1905.2976.6139-.085.9737.0425.8256.2763-.2752.4463-.2329 1.02.0635 1.02.1481 0 .2752.1063.2752.234 0 .1061.0846.1486.2116.085.127-.085.1482.1274.0847.5312-.127.6163.1905.9351.4022.3825.0423-.1487.1694-.2125.254-.1275.0847.085.0424.2976-.1058.4676-.127.1913-.2117.4463-.1482.595.0423.1488-.0423.4464-.2328.6376-.1694.2126-.3387.7651-.381 1.254-.0212.5313-.233 1.0626-.487 1.339-.4656.4887-.5927.8925-.2328.6587.127-.0637.2117 0 .2117.1913 0 .17-.127.3613-.254.4038-.2117.085-.2117.1488 0 .2975.2116.1488.1693.3188-.1694.7014-.381.4463-.4022.5525-.1482.7438.2329.17.254.34.127.5951-.1481.2338-.127.3613 0 .3613.254 0 .0636 1.254-.254 1.6577-.2752.3613-.5927.3188-.4445-.0637.0847-.17.0212-.3188-.1058-.3188s-.254.1912-.254.425c-.0212.2338-.0424.5526-.0636.7014-.0211.1275-.127.3187-.2752.425-.8255.5313-2.1803 4.208-1.7358 4.7394.127.1487.1694.4675.0847.7226-.2328.7226.0847 1.6152.635 1.8702.2964.1488.5293.425.5293.6163 0 .4251.4868 1.8915.6774 2.104.0846.0638.0846-.0637.0211-.3187-.0635-.2338-.0635-.5739 0-.765.2117-.51.762-.1276.9103.6587.0635.4038.4022 1.0201.7197 1.4027.3387.3825.5715.765.508.8501-.0423.085.0847.2338.2752.3613.2117.1275.2964.2338.2117.2338s.0847.255.381.5738c.3387.3826.5292.829.5292 1.254 0 .5312.1694.7863.8256 1.2326 1.122.7863 2.9847 1.4877 3.26 1.2114.254-.255.762-.085 1.4182.5313.2963.255.889.5526 1.3124.6163.5504.1063 1.1008.4676 1.8205 1.1902 1.1643 1.169 1.5665 1.3602.9102.425v.0001zm88.7375-3.9956c-.1693-.4675-.4233-.3188-.6773.3826-.36 1.0414-.2752 1.2114.275.5313.2965-.34.4658-.7439.4023-.9139zM90.974 65.335c-.4446-.3187-.995-.17-.8468.2126.0635.17.3175.2338.6562.17.508-.1063.5292-.1275.1906-.3826zm78.2168-.425c.254-.2975.2329-.34-.1058-.2763-.233.0425-.4446.2125-.508.3613-.106.3613.275.3188.6138-.085zm-80.5665-.085c-.1694-.2763-1.6935-1.0627-2.0534-1.0627-.1481 0 .127.1913.635.4464.487.255.8892.5313.8892.6375 0 .1063.1481.1913.3387.1913.1693 0 .254-.1063.1905-.2125zm85.2024-1.9978c0-.17.0635-.4888.127-.7013.1058-.34.0847-.34-.2117.0212-.381.4676-.4445.9777-.127.9777.127 0 .2117-.1276.2117-.2976zM73.2562 61.297c-.381-.8926-.4657-.9776-.6139-.6163-.1058.2763-.0635.4463.127.4888.1694.0425.3599.34.4234.6376.1905.7438.3598 1.0414.4445.765.0424-.1274-.127-.7013-.381-1.275zm104.1268-3.7405c-.0423-.255-.2116-.51-.381-.5525-.2752-.1063-.2752-.0638-.0423.2337.1693.1913.2328.4464.1482.574-.0635.1061-.0212.2124.1058.2124s.2117-.2125.1693-.4676zm2.0957-1.6577c.1905 0 .5292-.1487.7409-.3613.2752-.255.381-.2763.381-.0637 0 .1487.0635.2337.127.17.0635-.0638.0212-.2975-.1058-.5313-.3387-.6376-.508-1.2114-.4657-1.594.0635-.5526-.635-1.509-.889-1.2539-.1694.17-.1483.3188.021.4888.4235.425.3176 1.7215-.1693 2.0403-.2328.1487-.3598.3825-.2963.5738.0847.2338 0 .3188-.3387.3188-.5504 0-1.2701.3613-1.2701.6376 0 .1275.2117.1275.5504 0 .7832-.3188 1.143-.255 1.1642.17.0212.2338.0635.1913.127-.1063.0424-.2762.254-.4888.4234-.4888zm-55.0376-.6376c-.0423-.6163-.3598-.51-.3598.1276 0 .2975.0846.4888.1905.4038.127-.0638.1905-.2976.1693-.5314zm-29.572-2.869c.148-.17.1693-.3189.0423-.3189-.1059 0-.3176.1488-.4657.3188-.1482.17-.1694.3188-.0424.3188.1059 0 .3175-.1488.4657-.3188l.0001.0001zm84.906-2.019c.1058 0 .1905-.085.1905-.2126 0-.1063-.1694-.2125-.3599-.2125-.2117 0-.6774-.1913-1.0372-.4038l-.6774-.4039.3175.6164c.1694.34.2329.7226.1482.8713-.1059.1488-.0424.1913.1693.1276.1694-.085.4446-.0425.614.0637.1904.1275.3174.085.3598-.1275.0423-.17.1693-.3188.2752-.3188v.0001zm-80.2914-.2976c.0423-.2338 0-.34-.127-.255-.127.0637-.2752.0424-.3599-.085-.2116-.3614-.6138-.2339-1.016.34l-.4022.5313.9314-.0638c.6773-.0425.9314-.17.9737-.4675zm21.0836-1.0627c-.0635-.17 0-.3613.1059-.4463.127-.0637.1905-.2338.1058-.34-.0635-.1063-.1905-.1488-.2963-.085-.1059.0637-.254-.1275-.3387-.425-.0635-.2976-.2117-.5314-.2964-.5314-.1058 0-.254-.1913-.3175-.425-.0635-.2338-.2752-.425-.4445-.425-.3387 0-.4022-.34-.0847-.5314.3387-.2126.254-.8076-.106-.6589-.2115.0638-.3174-.0212-.3174-.255-.0212-.3188-.0423-.3188-.254.0425-.1694.2975-.1694.51.0212.7864.127.2337.2328.5525.2328.7225 0 .17.127.3188.2752.3188.1693 0 .2964.1276.2964.2763 0 .1275.0846.425.1693.6376.1058.255.0635.3613-.1058.3188-.1482-.0425-.2964.1488-.3387.425-.0635.404-.0212.4676.3387.3614.3175-.1063.381-.0638.2963.1912-.1058.255.0212.34.5292.34.4657 0 .6139-.085.5292-.2975zm-3.1964-.5313c.3599-.1488.5504-.4038.6139-.8713.0635-.3613.0212-.7014-.0847-.765-.2963-.1914-.9949.5524-.8679.8925.0635.17 0 .4463-.1482.6163-.2963.3613-.2116.3825.487.1275h-.0001zm-44.157-.9776c-.0212-.4038-.1694-.7864-.2964-.8289-.2752-.1062-.254.1275.0423 1.1052.2117.6588.2964.5738.254-.2763h.0001zm50.5287-1.4027c-.1694-.2975-.508-.2125-.508.1275 0 .1913.127.255.3175.1913.1693-.085.254-.2125.1905-.3188zm52.4127.085c-.0212-.3825-2.7096-3.3792-2.879-3.209-.0422.0636.487.7012 1.1855 1.4663.6986.7438 1.3336 1.5302 1.397 1.7427.0636.1913.1483.3613.2118.3613.0423 0 .0847-.17.0847-.3613zm-71.1255-3.9105c0-.1275.1482-.3613.3175-.5313.1694-.17.254-.4463.1905-.6163-.0846-.17-.0423-.3188.0847-.3188.1059 0 .3175-.2763.4657-.6376.3175-.765.9103-1.4877 1.249-1.4877.127 0 .2328-.1488.2328-.3188 0-.3825.254-.4038.5715-.085.3176.3188 1.5242-.9564 1.5665-1.6152.0212-.3613.0423-.3613.127-.0425.127.4675.0847.4675 1.4606-.2126.635-.2975 1.122-.6588 1.0796-.7863-.0635-.1275-.2117-.2125-.381-.17-.1482.0425-.487.0212-.762-.0638-.4235-.1062-.4446-.17-.233-.5313.1482-.2338.4234-.4463.5928-.4463.2328-.0213.2328-.0425-.0424-.1275-.2116-.0425-.3175-.2126-.2328-.3826.0847-.255.1905-.255.6139.0638.2752.1913.508.4888.508.6376 0 .1487.0847.2337.1905.17.3175-.2125-.0211-1.2327-.4445-1.3602-.3175-.085-.36-.1488-.127-.2763.2117-.1487.2117-.1912-.0424-.1912-.1905 0-.3387-.2126-.381-.5314-.0212-.4038.0423-.4888.3175-.3825.254.1062.2964.0637.1694-.1488s-.0424-.2338.4022-.1275c.3175.085.5292.0638.4657-.0425-.0424-.085-.0212-.2975.0847-.4676.0846-.1487.0846-.4888 0-.765-.2117-.5526-.0424-.8077.3598-.4889.381.34.3599.0213-.0423-.3825-.2964-.2976-.2964-.3826-.0212-.8076.1694-.255.2752-.7864.2329-1.1477-.0424-.3613 0-.6588.1058-.6588.127 0 .2117-.2976.2117-.6589 0-.3613.1058-.85.2328-1.0838.2117-.3826.1906-.425-.1058-.3188-.1905.085-.3387.0425-.3387-.085 0-.3613.4234-1.0414.6562-1.0414.2752 0 .8256-.5314.8256-.8076 0-.1063-.1482-.3188-.3175-.4676-.254-.2125-.3387-.1913-.4446.085-.0635.1913-.2328.34-.3387.34-.127 0-.4868.2976-.8255.659-.6986.765-.8468.425-.1694-.4039l.4446-.5738-.4657-.0638c-.2964-.0425-.4234-.1913-.3387-.3825.148-.3613-.5292-.4038-.8891-.0425-.1905.1912-.254.1912-.254-.0213 0-.4463.6139-.9139 1.0372-.765.2117.0637.5504.0637.741-.0214.4868-.1912.4233-.7225-.106-.7225-.3175 0-.4021-.1063-.3175-.3188.1482-.4038-.7197-.4463-1.122-.0638-.2327.2125-.2962.2125-.381.0213-.0634-.1488-.2328-.2763-.4021-.2763s-.2964-.1488-.2964-.3613c0-.1913-.0635-.2976-.127-.2338-.0635.085-.0211.4676.0847.8926.127.4463.1482.7651.0212.7651-.106 0-.1905-.1913-.1905-.425 0-.2976-.106-.3826-.3387-.2763-.2752.1062-.3176.2975-.2117.935.1058.6802.0635.7864-.1905.7014-.1905-.085-.3176-.425-.3387-.9138-.0212-.7439-.0212-.765-.1694-.1276-.0635.3613-.1905.5951-.254.5314-.0635-.0638-.2752.0212-.4657.1912-.4234.34-.4445.255-.1482-.4888.1694-.4888.1482-.5525-.2117-.5525-.3175 0-.4233.1487-.4445.595l-.0212.574-.1693-.5315c-.0847-.2975-.1694-.3825-.1905-.1912-.0212.4038-.868 1.424-.868 1.0626 0-.17-.127-.1488-.3598.085-.2328.255-.2752.4038-.1058.51.4445.2764-.4657 1.424-1.249 1.594-.6985.1276-1.2489.4676-1.2489.7864 0 .085.1482.3188.3387.51.4022.3826.2329 1.0627-.2328.8714-.1906-.0637-.3176 0-.3176.17s-.0635.4676-.127.659c-.0846.1911-.0635.3187.0424.2974.5292-.085.9525.0638 1.3547.4888.381.425.4022.659.2964 2.4653-.0635 1.1052-.0212 2.104.0847 2.2316.254.3188-.0635 2.9754-.3599 3.0816-.127.0425-.2328.3613-.2328.7014 0 .4888-.0847.6163-.4658.6376-.4445 0-.4445.0212-.0846.17.2963.1275.3387.2125.1482.3188-.1482.1062-.2117.2975-.1482.4463.0423.1487-.0424.34-.2117.4038-.254.1062-.254.1913-.0423.5525.1905.2976.2116.489.0635.5951-.254.17-.2329.6801.0635 1.6365.148.51.2752.6163.6774.5738.3598-.0637.4445 0 .3598.255-.0847.1913-.0423.34.0635.34.127 0 .2117-.1062.2117-.2337zm9.568-2.104c.5928-.595.5928-.6588.2753-.9989-.2964-.2763-.4446-.2975-.7621-.1063-.233.1488-.4022.17-.4022.0425 0-.1062-.2328 0-.5292.255-.2752.234-.4657.5314-.4022.6164.0423.085-.0212.2338-.1693.3188-.1906.1275-.1059.2125.254.3188.9102.255 1.0796.2125 1.7358-.4463h-.0001zm-16.7652.2975c0-.0637-.1059-.2975-.2117-.5313-.3599-.6588-.0212-.935.4869-.4038.381.425.4445.425.6138.1275.1059-.2125.1059-.4888-.0423-.7438-.127-.2338-.254-.7226-.2963-1.0627-.0424-.4888.0211-.6588.3598-.7438.254-.0638.5504-.0213.6774.085.1482.1275.3175.1488.381.0638.0847-.0638.1482-.0213.1482.1062s-.0847.2976-.2117.3613c-.1058.0638-.2117.2338-.2117.34 0 .1063.2117-.0212.487-.2762.402-.4038.4444-.5313.2116-.765-.1482-.17-.2329-.3827-.1694-.4889.0847-.1063.0424-.1913-.0635-.1913-.1058 0-.2963-.255-.4445-.5526-.2117-.4675-.1905-.6376.1059-.9564.1905-.2337.254-.4038.127-.4038s-.2964-.3187-.3599-.68c-.0847-.3826-.2329-.8076-.3387-.9352-.2328-.2763-.0635-1.2326.2329-1.3176.254-.085.0635-.4676-.2329-.4676-.127 0-.1693.085-.1058.1913.0635.1062-.0635.2338-.3176.2975-.635.17-.6985-.3188-.1905-1.2114.508-.85.4234-.9776-.254-.34-.254.2125-.5504.34-.6562.2763-.127-.085-.1694 0-.0847.2125.0635.1913.0212.425-.127.51-.1482.1063-.381.4464-.5292.7864-.3387.7438-.4445.6588-.3175-.2338.0635-.3613.4445-1.0626.8467-1.5302 1.016-1.2114.4234-1.0839-.6985.1275-.995 1.0627-1.0796 1.3177-.6774 1.7215.1905.1913.1481.255-.2117.255-.254 0-.4657.1063-.4657.2126 0 .1275.1482.2125.3175.2125.1905 0 .381.1275.4445.2763.0635.17.2117.2975.3599.2975s.4234.085.635.17c.254.1063.36.0638.36-.17 0-.1913.1058-.4038.254-.4888.1693-.1063.1904-.0425.1058.1913-.0847.2125-.0424.3613.1058.3613s.1482.085 0 .2763c-.1693.1912-.127.51.1482 1.1264.4445.9563.2963 1.594-.4869 2.2953-.2752.255-.5504.6163-.6139.8288-.0846.2338-.3387.3826-.6138.3613-.7621-.0637-1.0161-.0212-1.0161.1913 0 .1063.3175.17.6985.1488.4657-.0213.6563.0637.614.2762-.0213.1488.0423.4038.1693.5314.1058.1487.1481.3188.0846.3825-.127.1488.5716 1.0201.8044 1.0201.1059 0 .1694-.0637.1694-.1275zm-30.7787-.8287c.2117-.17.3175-.2976.1905-.2976-.1059 0-.4022.1275-.6139.2976-.2328.17-.3175.3188-.2117.3188.127 0 .4022-.1488.635-.3188h.0001zm26.1217-1.2114c0-.1276.1481-.17.3175-.085.381.1487.4445-.51.0635-.8927-.1905-.1912-.3599-.085-.7197.4463-.254.3826-.4234.744-.381.829.127.2124.7197-.0426.7197-.2976zm-20.2158-1.679c-.0846-.1063-.3598-.0213-.635.17-.7197.5313-.6562.7226.1058.34.3599-.17.5927-.4037.5292-.51zm-3.1964-1.2964c-.0847-.1275-.2117-.1063-.3175.0637-.2964.4676-.2117.7014.127.4038.1693-.1487.254-.3613.1905-.4675zm22.7348-2.1466c.0423-.255-.0212-.3187-.254-.2337-.4022.1487-.4658.8076-.0636.68.127-.0637.2752-.255.3176-.4463zm41.8709.0426c-.614-.4889-1.249-1.5515-1.0373-1.764.0847-.0638-.0847-.1275-.3387-.1275-.381 0-.4233.0637-.2328.4038.1058.2337.2117.6163.2117.85 0 .2976.1058.404.2963.319.1905-.0639.4234.0636.5927.3187.1482.255.4446.4463.6774.4463.3387 0 .3175-.0638-.1693-.4463zm-43.268-.8927c-.0212-.17.1481-.3825.381-.4675.2963-.085.4234-.3188.4234-.7226 0-.34.1481-.7226.3175-.8714.1693-.1487.3175-.3613.3175-.4675 0-.1063.2117-.4676.4657-.8076.254-.34.4022-.68.3387-.765-.0635-.0639-.4445.34-.8256.8925-.4022.595-.7409.8926-.7832.7438-.0423-.1488.0635-.425.2329-.6163.3175-.2975.3175-.3613-.0212-.595-.2329-.17-.254-.2764-.0847-.2976.127 0 .254-.085.254-.2126 0-.1062-.1693-.1487-.3598-.0637-.3387.1275-.3175.0637.0423-.3613.4022-.4676.381-.4676-.6774.1063-1.016.5313-1.4818 1.169-.889 1.169.1058 0 .1481.1061.0846.2124-.0846.1275-.2117.17-.2963.1275-.0847-.0638-.2752 0-.4446.1063-.2751.17-.2328.255.1694.5525.4657.34.635.914.254.914-.127 0-.4022-.1276-.6562-.255-.3599-.2339-.4657-.2127-.7409.1274-.2329.34-.2329.4463-.0212.595.1905.1276.1905.2551-.0423.6164-.2752.4463-.254.4676.4234.34.4022-.0637.8679-.17 1.0584-.255.2328-.085.381 0 .4657.3188.127.5313.7197.4676.6139-.0638zm2.9635.0213c.4657-.7226.8256-1.8703.5716-1.8703-.1059 0-.1905.1488-.1905.3188 0 .17-.1482.3188-.3176.3188-.1693 0-.3175.1063-.3175.255 0 .1276-.1482.404-.3387.6164-.3175.3613-.254.829.1059.829.1058 0 .3175-.2127.4868-.4677zm5.4614-2.1678c0-.51-.3598-.595-.4868-.1275-.0635.2763 0 .425.1905.425.1693 0 .2963-.1275.2963-.2975zm-4.657-.8714c0-.2337-.1058-.3187-.2963-.255-.1694.0638-.3599.0213-.4022-.1275-.0635-.1488-.1694.0213-.254.3613-.1059.4038-.0847.6588.1058.765.3387.2126.8467-.255.8467-.7438zm38.0394-.1487c.0636-.4888.2329-1.1477.4022-1.4665.254-.51.254-.6375-.0423-.9138-.4022-.4038-.5715-.425-.4445-.0638.1058.3188-.233 1.0414-.4657.914-.254-.17-.2752 1.4451-.0212 2.104.2752.7437.4869.5525.5715-.5739zm-37.0445.3188c.127.085.4657-.1275.7833-.4676.508-.5313.5292-.6163.2116-.7438-.2328-.085-.5503.085-.9525.5525-.3387.3613-.614.7651-.614.8926 0 .1276.0848.1063.1906-.0637.1058-.1488.2752-.2338.381-.17zm-.2328-1.2752c-.1694-.17-.762.1063-.762.3613 0 .1488.127.1488.4445 0 .2328-.1488.381-.2975.3175-.3613zm-5.4826-.2338c.381-.2763.9737-.595 1.3336-.7013.6139-.2338 1.3124-1.0414.8679-1.0414-.1059 0-.1482-.17-.0847-.3826.0635-.2762-.0212-.4038-.2752-.4038-.1905 0-.4022.1913-.4657.4038-.0423.2126-.1482.3826-.2328.3826-.0635 0-.4657.2975-.868.6376-.4021.34-.8043.6376-.8678.6376s-.2329.2337-.3599.51c-.2963.6376.0212.6376.9526-.0425zm9.801.0638c.4021-.4676.0846-1.0202-.487-.8714-.5503.1275-1.1007-.1488-.9102-.4888.0847-.1275.0635-.2338-.0635-.2338-.3387 0-.6986.8076-.4234.9564.127.085.1694.2763.127.4038-.0846.1913.1059.255.508.2338.3388-.0213.614.0425.614.1488 0 .2762.3387.1912.635-.1488h.0001zm22.015-.85c0-.9352-.0847-1.2115-.4234-1.424-.233-.1488-.4234-.3826-.4234-.5314s-.1058-.2763-.2117-.2763c-.127 0-.0211.3826.2117.829.2329.4675.3599.9988.2964 1.1688-.0635.1913-.0212.34.1058.34.1694 0 .1905.1276.0423.4038-.127.2126-.1481.4463-.0846.5314.3387.34.4868.0425.4868-1.0414h.0001zm-1.122-.744c-.0211-.255-.2117-.595-.4233-.8076-.4022-.3613-.4022-.34-.0212.4463.4234.914.4869.9564.4445.3613zm-19.5172-.3825c-.0423-.1913-.0846-.4038-.1058-.4676-.0212-.0637-.0423-.17-.0212-.255 0-.1063-.0635-.17-.1693-.17-.1059 0-.254-.17-.2964-.3613-.0635-.2763-.1058-.255-.127.1062-.0211.34-.127.4676-.381.425-.2329-.0424-.381.0638-.381.2551 0 .2125.1693.2976.4868.255.3387-.0425.4657.0426.4657.3613 0 .2763.1059.4038.2964.3188.1693-.0637.2752-.2762.2328-.4675zM95.123 25.89c.1906 0 .4657-.1275.614-.3188.2328-.255.2116-.2975-.0424-.2762-.6986.1062-.8468.0212-.6139-.4038.2752-.5526.2752-.8714-.0423-.8714-.127 0-.1906.0638-.1059.1275.1905.1913-.4022.7226-.7832.7226-.1905 0-.3387.1063-.3387.2338s.127.1913.2964.1275c.1693-.0638.4233.0213.5503.1913.2117.2338.1694.2975-.2752.2975-.2963 0-.6138.1063-.6985.2338-.1058.1913.0212.2125.4657.085.3387-.085.7832-.1488.9737-.1488zm3.7257-.7438c.0211-.51 0-.5313-.1906-.2125-.1058.1912-.1481.4675-.0846.5738.1905.3188.2117.2763.2752-.3613zm3.7467-.4038c.508-.51.7198-.8714.635-1.1264-.127-.4463.4023-.9776.7622-.7439.1693.085.1905.0638.1058-.085-.0847-.1487-.0423-.255.0635-.255.127 0 .2329.1275.254.2763 0 .1488.0635.1275.127-.0638.1482-.34.6986-.9563.6986-.7438 0 .0637.254-.0425.5504-.255.508-.3188.5292-.3613.1693-.51-.36-.1489-.36-.17-.0212-.17.1906-.0214.3599-.1489.3599-.3189 0-.1913.1482-.255.381-.1913.4446.1063.9526-.4038.995-1.02.0211-.2127-.1059-.4039-.254-.4039-.1694 0-.2753-.1276-.2541-.255.0635-.6164-.0423-.8502-.3387-.7227-.2117.0638-.3175-.0212-.3387-.255 0-.2975-.0423-.2975-.1905.0638-.1058.2337-.1905.3613-.1905.255-.0212-.085-.381.085-.8256.3613-.635.3825-.889.4676-1.2066.2975-.3175-.1912-.3598-.17-.254.1063.0635.1913.0423.4038-.0635.4676-.3175.1912-.254.5313.0635.4038.1694-.0638.2964.0425.2964.2337 0 .17-.127.3188-.2752.3188s-.3175.085-.381.17c-.127.2126.8467.2126 1.0584 0 .0846-.1062.254-.17.381-.17s.127.085-.0212.2338c-.127.1275-.1905.3613-.127.51.1059.319-.6562.6377-.995.4251-.127-.0637-.2963.085-.4021.3613-.1905.4676-.2117.4676-.2117-.1275-.0211-.51-.2963-.6376-.3598-.17 0 .085-.127.425-.2752.765-.1694.4464-.1905.659-.0212.7652.1482.1062.127.2338-.1058.425-.2117.17-.3176.1913-.3176.0213 0-.1275-.1693-.2338-.3598-.2125-.254 0-.2752.0425-.106.1275.2118.085.2118.2125-.0634.6376-.1905.2975-.2963.5738-.2328.6588.0635.0638.127 0 .127-.1275 0-.1488.0847-.255.2117-.255s.127.1912 0 .5313c-.2752.7438.0635.68.9525-.2338zm20.2158.2125c0-.7013-.6986-.6376-.8044.085-.0635.3613.0423.4676.3598.4676.3387 0 .4446-.1275.4446-.5526zm-21.0202-2.2103c.1482 0 .2752-.17.2752-.3825s.0847-.4676.1906-.5738c.1058-.1276.2328-.6164.3175-1.1264.127-.8714.127-.8927-.254-.5314-.2117.2126-.3599.5101-.2964.659.0423.1274-.0635.255-.254.255-.3387 0-.4234.2974-.3387 1.2113.0212.3613-.0635.4463-.2964.3613-.1905-.0637-.3387-.0425-.3387.085s-.0635.3826-.1481.5951c-.127.3188-.0635.2975.3598-.085.2752-.255.635-.4676.7833-.4676h-.0001zm-2.0533-.765c0-.17-.0846-.255-.2117-.1913-.1058.0637-.2116.2762-.2116.4463 0 .17.1058.255.2116.1912.127-.0637.2117-.2762.2117-.4463v.0001zm36.9387-.4889c-.2752-.2975-.5927-.4675-.6774-.3613-.0847.085-.0635.2125.0635.2976.127.085.3599.3825.508.6588.1906.4038.2964.4463.4446.2125.127-.2125 0-.4675-.3387-.8076zm9.9703.5313c-.0212-.17-.3175-.5313-.6562-.8076-.3387-.255-.5504-.3613-.4446-.2125.1905.3188.0212.3188-.5292.0425-.8044-.4463-.381.0213.6139.6376 1.1854.7438 1.0796.7013 1.016.34zm-11.4732-.8076c-.3387-.2763-.6563-.4675-.7198-.4463-.0635.0213-.2752-.1275-.4657-.2975-.254-.2338-.381-.255-.381-.085 0 .425 1.1008 1.2964 1.651 1.2964h.5293l-.6138-.4676zm-2.138-1.4027c-.2117-.1912-.5716-.51-.7833-.68-.381-.2976-.4022-.2976-.1693.1062.4022.744 1.1854 1.4665 1.27 1.1902.0424-.1488-.0846-.425-.3174-.6164zm-21.2318-.2337c0-.085.254-.1275.5927-.0638.381.0638.508.0213.3598-.1275-.2117-.2125-.635-.3188-1.1007-.2763-.3175.0213-.381.6588-.0635.6588.127 0 .2117-.085.2117-.1912z" fill="#E02020"/></g><path d="M225.735 367.1506c6.9 0 12.405 2.055 16.515 6.165 4.11 4.11 6.165 9.615 6.165 16.515 0 6.96-2.085 12.54-6.255 16.74-4.17 4.2-9.705 6.3-16.605 6.3s-12.39-2.07-16.47-6.21c-4.08-4.14-6.12-9.66-6.12-16.56 0-6.96 2.07-12.525 6.21-16.695 4.14-4.17 9.66-6.255 16.56-6.255zm96.21 0c6.9 0 12.405 2.055 16.515 6.165 4.11 4.11 6.165 9.615 6.165 16.515 0 6.96-2.085 12.54-6.255 16.74-4.17 4.2-9.705 6.3-16.605 6.3s-12.39-2.07-16.47-6.21c-4.08-4.14-6.12-9.66-6.12-16.56 0-6.96 2.07-12.525 6.21-16.695 4.14-4.17 9.66-6.255 16.56-6.255zm-144.99-.09c5.7 0 10.185 1.32 13.455 3.96 3.27 2.64 4.905 6.06 4.905 10.26 0 3.54-1.47 6.81-4.41 9.81-2.94 3-7.44 6.06-13.5 9.18h19.89l.18 11.25h-38.88v-9.63c9.48-6 15.03-9.63 16.65-10.89 3.54-2.7 5.31-5.13 5.31-7.29 0-3.36-2.28-5.04-6.84-5.04-3.84 0-8.22 1.59-13.14 4.77l-3.06-10.26c5.88-4.08 12.36-6.12 19.44-6.12zm96.21 0c5.7 0 10.185 1.32 13.455 3.96 3.27 2.64 4.905 6.06 4.905 10.26 0 3.54-1.47 6.81-4.41 9.81-2.94 3-7.44 6.06-13.5 9.18h19.89l.18 11.25h-38.88v-9.63c9.48-6 15.03-9.63 16.65-10.89 3.54-2.7 5.31-5.13 5.31-7.29 0-3.36-2.28-5.04-6.84-5.04-3.84 0-8.22 1.59-13.14 4.77l-3.06-10.26c5.88-4.08 12.36-6.12 19.44-6.12zm-47.52 10.53c-2.82 0-5.07 1.11-6.75 3.33-1.68 2.22-2.52 5.25-2.52 9.09 0 3.9.855 6.945 2.565 9.135 1.71 2.19 3.975 3.285 6.795 3.285 2.76 0 4.995-1.11 6.705-3.33 1.71-2.22 2.565-5.25 2.565-9.09s-.855-6.87-2.565-9.09c-1.71-2.22-3.975-3.33-6.795-3.33zm96.21 0c-2.82 0-5.07 1.11-6.75 3.33-1.68 2.22-2.52 5.25-2.52 9.09 0 3.9.855 6.945 2.565 9.135 1.71 2.19 3.975 3.285 6.795 3.285 2.76 0 4.995-1.11 6.705-3.33 1.71-2.22 2.565-5.25 2.565-9.09s-.855-6.87-2.565-9.09c-1.71-2.22-3.975-3.33-6.795-3.33zm-137.085-81.32v32.67c0 8.58 3.63 12.87 10.89 12.87 3.42 0 5.985-.99 7.695-2.97 1.71-1.98 2.565-5.1 2.565-9.36v-33.21h14.22v33.3c0 7.98-2.205 14.025-6.615 18.135-4.41 4.11-10.485 6.165-18.225 6.165-7.62 0-13.65-1.92-18.09-5.76-4.44-3.84-6.66-9.6-6.66-17.28v-34.56h14.22zm62.1 0l23.4 36.54v-36.54h13.41v56.79h-15.21l-23.67-36.99v36.45h-13.41v-56.25h15.48zm-232.56 0v24.84h.09l18.72-24.84H49.5l-22.23 27.45 22.77 28.8h-17.1l-18.54-24.75h-.09v24.75H0v-56.25h14.31zm75.96 0l19.62 56.25H95.67l-4.14-11.97H70.65l-4.05 11.97H52.38l19.98-56.25h17.91zm48.24 0c7.32 0 12.945 1.59 16.875 4.77 3.93 3.18 5.895 7.53 5.895 13.05 0 7.86-3.84 13.26-11.52 16.2l14.4 22.23h-16.11l-11.25-18.9-6.57.54v18.36h-14.31v-56.25h22.59zm189.09 0l19.62 56.25H333l-4.14-11.97h-20.88l-4.05 11.97h-14.22l19.98-56.25h17.91zm-246.42 11.07l-7.47 22.05h14.67l-7.2-22.05zm237.33 0l-7.47 22.05h14.67l-7.2-22.05zm-182.52.27h-6.03v15.93l7.2-.18c6.3-.48 9.45-3.27 9.45-8.37 0-4.92-3.54-7.38-10.62-7.38z" fill="#E02020"/></g></svg>
