<?xml version="1.0" standalone="no"?>
<!DOCTYPE svg PUBLIC "-//W3C//DTD SVG 20010904//EN"
 "http://www.w3.org/TR/2001/REC-SVG-20010904/DTD/svg10.dtd">
<svg version="1.0" xmlns="http://www.w3.org/2000/svg"
 width="1024.000000pt" height="1024.000000pt" viewBox="0 0 1024.000000 1024.000000"
 preserveAspectRatio="xMidYMid meet">
<metadata>
Created by potrace 1.11, written by Peter Selinger 2001-2013
</metadata>
<g transform="translate(0.000000,1024.000000) scale(0.100000,-0.100000)"
fill="#000000" stroke="none">
<path d="M3680 10208 c-146 -15 -348 -78 -497 -155 -197 -102 -403 -287 -545
-488 -37 -54 -119 -199 -155 -277 -66 -140 -145 -433 -160 -593 -9 -93 -9
-450 0 -545 6 -61 33 -207 62 -337 9 -40 82 -266 109 -338 42 -112 181 -386
259 -511 252 -404 654 -835 1067 -1144 19 -14 45 -34 59 -46 58 -47 318 -219
452 -300 160 -95 416 -227 584 -300 101 -44 116 -48 190 -48 75 0 88 4 200 53
752 329 1455 862 1924 1458 46 58 261 376 261 386 0 2 23 44 51 93 107 186
189 379 269 639 22 71 72 347 78 430 10 131 6 480 -7 550 -6 33 -13 76 -16 95
-36 217 -137 485 -259 681 -157 252 -386 455 -653 577 -50 23 -96 42 -102 42
-6 0 -19 4 -29 10 -17 9 -117 38 -162 47 -134 25 -202 31 -345 28 -88 -2 -171
-5 -185 -8 -14 -3 -43 -8 -65 -12 -278 -46 -566 -181 -889 -415 -38 -27 -75
-50 -81 -50 -6 0 -22 12 -36 26 -26 29 -248 178 -319 215 -25 13 -52 28 -60
34 -31 23 -218 104 -295 129 -84 27 -222 61 -290 72 -60 9 -330 11 -415 2z
m639 -751 c16 -30 11 -40 -31 -61 -12 -6 -23 -18 -23 -26 0 -8 -12 -21 -27
-28 -16 -7 -28 -17 -28 -23 0 -5 -3 -8 -7 -7 -22 6 -53 -15 -53 -36 0 -12 -10
-32 -22 -43 -37 -33 -47 -36 -40 -11 4 16 2 19 -9 13 -11 -6 -12 -5 -1 6 6 7
12 22 12 32 0 16 3 17 15 7 15 -13 19 -8 16 22 -3 26 19 63 29 48 5 -9 9 -9
14 -1 4 6 16 11 27 11 10 0 19 4 19 9 0 5 3 17 7 27 5 13 3 15 -8 8 -8 -4 -23
-10 -34 -12 -20 -3 -20 -3 0 12 11 9 14 16 8 16 -7 0 -12 11 -11 25 2 17 7 24
18 20 8 -2 33 6 55 18 43 25 49 23 74 -26z m191 -17 c-28 -8 -35 -6 -26 8 3 6
16 7 29 4 22 -6 22 -6 -3 -12z m841 -22 c5 -10 7 -18 5 -18 -9 0 -46 43 -46
53 0 13 29 -12 41 -35z m-844 -2 c27 7 73 -34 53 -46 -7 -5 -19 -6 -27 -3 -7
3 -20 0 -28 -7 -17 -14 -20 -35 -4 -24 6 3 22 1 34 -6 23 -12 23 -14 9 -41
-19 -37 -15 -36 32 5 33 29 40 32 48 19 6 -11 -1 -23 -24 -44 -25 -23 -29 -33
-21 -43 12 -14 1 -92 -21 -149 -8 -20 -7 -31 2 -43 11 -12 11 -15 -1 -12 -8 2
-13 -3 -11 -11 7 -30 -8 -59 -33 -65 -30 -8 -31 -22 -5 -56 11 -14 20 -34 20
-45 0 -18 -1 -18 -16 3 -8 12 -22 22 -31 22 -12 0 -13 -3 -4 -14 9 -11 8 -15
-5 -20 -17 -7 -14 -30 4 -32 7 -1 20 -2 30 -3 15 -1 15 -3 -3 -17 -36 -29 -79
-44 -87 -31 -5 8 -8 7 -8 -4 0 -21 -45 -62 -61 -57 -16 5 -74 -51 -84 -81 -3
-11 -10 -21 -14 -21 -4 0 -7 -9 -8 -20 -1 -11 -9 -27 -17 -36 -15 -14 -16 -14
-16 1 0 9 -4 14 -9 11 -17 -11 -33 25 -36 79 -1 30 2 55 7 55 5 0 7 4 3 9 -3
5 -1 12 4 16 6 3 8 12 4 20 -3 8 -1 15 4 15 5 0 15 21 23 48 16 54 15 289 -1
308 -5 7 -21 15 -34 18 -31 8 -31 19 -3 45 20 20 21 22 4 40 -16 18 -16 20 6
35 12 9 30 16 40 16 9 0 23 10 30 23 12 21 14 27 17 55 0 6 8 12 16 12 8 0 19
9 25 20 6 11 15 18 21 15 5 -4 9 1 9 9 0 9 5 16 11 16 7 0 9 -10 5 -25 -4 -14
-4 -25 -2 -25 17 0 36 15 37 29 0 9 5 4 11 -12 5 -15 14 -25 18 -22 5 3 7 12
3 20 -3 8 -2 23 2 33 6 16 8 16 21 -3 15 -19 15 -19 8 9 -6 26 -5 27 13 18 11
-6 29 -9 40 -6z m-381 -27 c-2 -16 -9 -36 -15 -43 -6 -7 -8 -15 -6 -18 3 -3
-6 -13 -21 -22 -26 -18 -41 -16 -29 3 3 6 11 9 16 6 5 -4 9 7 9 24 0 16 10 41
23 55 28 33 29 32 23 -5z m1324 -36 c0 -8 -45 10 -62 25 -33 28 -18 32 22 6
22 -15 40 -29 40 -31z m51 -5 c15 -28 -9 -19 -29 10 -13 20 -13 22 2 16 9 -3
21 -15 27 -26z m373 13 c9 -7 16 -18 16 -23 0 -10 -23 1 -55 26 -20 16 -20 16
2 13 11 -2 28 -9 37 -16z m-1867 -33 c-3 -8 -6 -5 -6 6 -1 11 2 17 5 13 3 -3
4 -12 1 -19z m1563 -27 c0 -8 54 -41 67 -41 1 0 3 7 3 16 0 15 3 15 28 -1 51
-33 81 -67 111 -131 17 -35 32 -64 35 -64 2 0 3 15 2 33 -1 25 3 31 17 29 9
-2 17 2 17 8 0 8 15 9 45 4 49 -7 54 -1 28 29 -17 20 -17 20 0 14 10 -4 24 -7
31 -7 7 0 22 -9 34 -20 28 -27 114 -72 121 -64 3 3 -2 12 -12 19 -18 13 -17
14 2 20 12 3 25 4 31 0 14 -8 1 26 -18 48 -8 9 -21 17 -29 17 -16 0 -17 16 -2
26 6 3 24 -4 41 -16 l30 -22 -12 22 c-15 28 -6 37 15 16 9 -9 23 -17 31 -17
23 -2 28 -4 41 -12 7 -5 16 0 23 12 11 22 28 20 71 -10 14 -10 38 -21 55 -25
26 -7 28 -6 15 9 -11 14 -11 18 3 23 9 3 30 1 47 -5 18 -6 34 -11 37 -11 13 0
-26 34 -57 50 -29 15 -33 20 -19 25 28 11 165 -11 208 -34 43 -22 54 -14 18
13 -13 10 -16 15 -7 13 20 -6 129 -88 129 -97 0 -3 -13 -5 -30 -2 -38 5 -39
-10 -2 -29 46 -23 86 -59 67 -59 -14 0 -15 -3 -5 -15 7 -8 17 -15 24 -15 25 0
136 -63 136 -77 0 -9 14 -39 30 -68 29 -51 29 -53 10 -58 -47 -12 -7 -75 103
-162 30 -23 78 -82 81 -98 1 -7 6 -19 11 -27 5 -8 10 -21 12 -29 1 -8 7 -18
15 -22 7 -4 10 -11 6 -14 -3 -4 -44 28 -91 69 -57 51 -93 91 -108 123 -12 27
-33 62 -45 78 -13 17 -29 41 -36 55 -18 35 -98 106 -98 88 0 -8 9 -23 20 -33
26 -23 26 -39 0 -23 -15 10 -22 10 -31 1 -9 -9 -3 -24 23 -61 34 -46 34 -49
13 -44 -14 2 -37 -5 -57 -19 -18 -13 -35 -25 -37 -27 -3 -1 3 -24 12 -50 9
-26 21 -65 27 -87 8 -30 18 -44 44 -57 24 -11 37 -13 44 -6 17 17 56 -15 100
-80 48 -72 62 -111 62 -171 0 -50 -13 -73 -36 -64 -15 6 -16 4 -18 -42 -1 -17
-5 -36 -9 -42 -4 -7 5 -27 21 -45 44 -51 55 -75 36 -82 -10 -4 -19 4 -29 28
-8 19 -24 37 -35 41 -11 4 -20 15 -20 26 0 17 -5 19 -35 15 -27 -5 -35 -2 -35
9 0 26 -25 16 -44 -17 -19 -31 -19 -31 4 -50 16 -13 26 -15 35 -8 19 16 25 0
9 -25 -13 -20 -12 -24 11 -51 30 -34 31 -44 8 -45 -12 -1 -9 -4 7 -8 14 -4 24
-14 22 -21 -2 -7 2 -16 8 -20 14 -9 -14 -88 -44 -123 -13 -15 -37 -30 -52 -33
-15 -3 -35 -9 -45 -14 -10 -6 -31 -10 -46 -10 -16 0 -34 -5 -41 -12 -19 -19
-14 -65 9 -82 13 -8 22 -28 24 -46 3 -31 -3 -39 -49 -78 -7 -6 -23 1 -49 24
-41 38 -63 43 -70 17 -2 -10 -7 0 -12 23 -10 59 -18 69 -44 55 -19 -11 -21 -9
-21 13 0 14 -5 28 -10 31 -6 4 -23 25 -37 48 -21 33 -28 38 -31 24 -2 -11 -9
-16 -18 -13 -8 3 -36 -15 -67 -45 -28 -28 -62 -58 -74 -66 -13 -8 -23 -25 -23
-38 0 -37 -50 -119 -64 -104 -13 15 -49 144 -53 192 -6 58 -11 65 -30 46 -12
-12 -37 -3 -28 11 3 4 -15 20 -39 34 -34 20 -58 26 -101 26 -31 0 -69 6 -83
14 -15 8 -43 17 -63 21 -20 3 -46 16 -59 30 -51 54 -67 16 -22 -50 31 -45 77
-59 98 -30 11 15 13 15 23 -3 6 -12 20 -24 31 -27 29 -9 25 -32 -12 -71 -32
-34 -161 -104 -192 -104 -8 0 -18 -4 -21 -10 -12 -20 -24 -9 -40 39 -9 28 -24
60 -34 73 -10 13 -28 43 -41 68 -30 59 -55 90 -85 106 -14 7 -25 12 -25 10 0
-4 91 -191 101 -206 5 -8 13 -24 18 -35 5 -11 21 -31 35 -44 14 -14 26 -33 26
-43 0 -24 19 -27 88 -14 24 4 46 5 49 2 13 -12 -51 -98 -114 -153 -79 -68
-132 -123 -134 -137 -1 -6 -2 -27 -3 -46 -1 -19 -6 -56 -10 -83 -7 -43 -12
-50 -61 -81 -58 -38 -68 -49 -73 -86 -4 -29 -19 -50 -37 -50 -6 0 -17 -11 -23
-25 -18 -39 -83 -105 -123 -126 -20 -10 -39 -16 -41 -14 -2 3 -19 1 -36 -4
-30 -9 -32 -8 -36 22 -3 18 -7 70 -10 117 -3 47 -10 100 -16 119 -11 39 -5 71
22 117 25 43 18 124 -15 171 -22 30 -23 39 -15 73 12 47 5 70 -20 70 -11 0
-31 9 -45 20 -24 19 -28 19 -89 5 -108 -25 -141 -21 -185 23 -87 88 -93 104
-87 202 6 94 10 104 78 172 25 26 46 54 46 62 0 8 14 30 30 48 23 24 37 32 58
30 15 -2 43 4 62 12 19 8 65 17 103 21 71 6 73 5 68 -47 -2 -11 8 -20 26 -24
15 -4 46 -17 69 -30 51 -30 67 -30 79 -1 11 25 28 28 70 11 29 -12 78 -17 141
-15 36 1 44 14 51 78 l5 41 -40 -5 c-63 -8 -107 3 -120 33 -15 32 -15 34 2 34
8 0 31 9 50 21 35 21 44 21 137 4 24 -5 43 11 36 29 -4 9 -22 26 -42 37 -28
17 -35 27 -33 48 3 21 -1 25 -17 22 -11 -2 -38 -4 -60 -5 -50 -1 -75 -32 -75
-93 l0 -43 -40 0 c-36 0 -40 -2 -40 -25 0 -14 -4 -25 -9 -25 -16 0 -41 31 -41
51 0 11 -16 30 -40 45 -22 15 -40 29 -40 33 0 3 -9 12 -19 18 -15 10 -22 9
-31 -2 -9 -11 -2 -23 35 -60 26 -25 45 -48 42 -51 -7 -7 -61 30 -99 67 -28 27
-28 27 -70 11 -24 -9 -45 -20 -47 -25 -1 -4 -14 -18 -27 -30 -13 -13 -26 -34
-29 -47 -7 -39 -55 -58 -102 -43 -26 9 -28 13 -28 69 l0 59 57 3 c39 2 58 8
62 18 7 19 -19 84 -33 84 -6 0 -11 5 -11 10 0 6 9 10 19 10 20 0 101 71 101
89 0 5 16 13 35 17 27 5 33 9 25 19 -8 10 -2 10 30 1 31 -8 46 -7 60 2 11 7
38 12 59 12 41 0 62 14 36 24 -23 8 -19 46 5 46 22 0 26 10 9 27 -15 15 -3 33
20 33 10 0 24 6 30 14 17 21 -2 29 -48 21 -28 -5 -41 -2 -51 10 -18 22 -16 82
4 104 12 13 13 20 4 29 -13 13 -48 16 -49 5 -3 -31 -12 -59 -25 -83 -15 -25
-15 -30 -1 -59 8 -17 12 -31 8 -31 -4 0 -7 -20 -7 -45 1 -76 -40 -77 -59 -2
-11 43 -31 53 -47 22 -13 -23 -16 -25 -27 -11 -7 8 -11 21 -8 28 2 7 0 24 -5
36 -7 20 -3 29 21 51 18 17 32 43 37 66 12 68 40 129 72 162 18 17 32 27 32
21 0 -7 5 -6 14 1 11 9 21 7 48 -9 18 -11 43 -20 56 -20 31 0 112 -48 112 -66
0 -23 -28 -28 -70 -11 -37 14 -39 14 -31 -1 5 -10 18 -25 28 -34 10 -10 27
-26 37 -38 20 -21 46 -27 46 -11 0 5 -8 12 -17 15 -11 3 -7 4 7 3 22 -2 25 1
22 27 -4 27 -2 28 25 22 23 -6 26 -5 16 5 -18 18 -16 40 2 33 9 -4 19 3 26 20
8 16 20 26 34 26 12 0 30 6 40 14 11 8 25 12 32 9 16 -6 17 19 1 35 -19 19 13
15 63 -7 24 -11 46 -18 48 -15 2 2 -16 24 -41 47 -25 24 -47 55 -50 68 -3 13
-9 32 -13 42 -5 12 -3 17 8 17 8 0 17 -6 20 -12 3 -7 35 -51 71 -96 69 -87 78
-108 49 -114 -15 -3 -14 -6 6 -17 38 -21 49 0 29 54 -10 25 -16 45 -14 45 2 0
13 -9 26 -20 13 -11 30 -20 39 -20 12 1 12 3 -4 12 -11 6 -28 20 -37 31 -10
11 -24 17 -31 14 -18 -7 -26 0 -60 45 l-27 37 32 -10 c44 -12 48 -11 19 5 -14
8 -26 21 -27 30 -2 13 2 14 17 6 10 -6 19 -7 19 -3 0 4 20 -13 43 -38 24 -24
54 -45 66 -46 12 -1 19 2 16 8 -4 5 -12 9 -20 9 -7 0 -26 15 -42 33 -16 19
-51 48 -77 66 -44 31 -47 35 -32 50 15 14 18 14 26 1 8 -13 10 -13 10 1 0 9
-9 24 -21 35 -36 32 -41 51 -24 84 9 16 22 30 29 30 21 0 8 36 -20 55 -27 17
-51 55 -34 55 5 0 10 -4 10 -9z m-1742 -66 c-4 -20 -1 -25 15 -25 34 0 5 -20
-34 -24 -19 -2 -26 -1 -16 1 21 5 23 23 2 23 -8 0 -15 5 -15 10 0 6 7 10 15
10 9 0 18 7 21 15 10 24 17 17 12 -10z m1108 -6 c8 -14 -11 -33 -25 -25 -11 7
-4 36 9 36 5 0 12 -5 16 -11z m-959 -21 c-3 -8 -6 -5 -6 6 -1 11 2 17 5 13 3
-3 4 -12 1 -19z m93 -18 c1 -8 2 -22 1 -30 -1 -12 -4 -12 -12 3 -5 9 -17 17
-24 17 -20 0 -19 10 3 26 18 14 29 8 32 -16z m830 -67 c0 -27 -4 -42 -10 -38
-6 4 -8 10 -5 15 2 4 -2 30 -10 56 -19 62 -19 61 5 34 13 -16 20 -37 20 -67z
m-1529 65 c1 -7 0 -24 -1 -37 -1 -13 4 -34 10 -46 9 -16 9 -35 2 -69 -11 -51
-10 -51 21 -34 12 6 36 14 55 19 30 6 32 5 26 -13 -5 -16 -2 -19 13 -16 25 5
46 -61 24 -78 -16 -13 -7 -34 15 -34 12 0 14 -7 9 -32 l-7 -33 31 35 c27 31
32 33 43 19 7 -9 25 -19 40 -22 20 -5 25 -12 21 -27 -3 -11 0 -20 6 -20 6 0
11 5 11 11 0 11 71 79 83 79 4 0 3 -10 -4 -22 -10 -18 -9 -20 6 -14 14 5 16 2
10 -11 -22 -53 -14 -56 29 -10 38 41 47 46 53 31 4 -10 0 -21 -10 -29 -10 -7
-17 -19 -17 -27 0 -24 -21 -39 -37 -27 -9 8 -13 8 -13 0 0 -6 -7 -11 -15 -11
-8 0 -15 -4 -15 -9 0 -18 -33 -21 -46 -4 -11 15 -13 15 -14 2 0 -8 5 -20 12
-27 18 -18 -3 -34 -46 -34 -20 0 -33 -4 -30 -9 3 -5 -17 -33 -44 -61 -48 -51
-97 -128 -71 -113 9 6 10 1 5 -19 -5 -21 -3 -26 13 -26 11 0 29 -13 41 -30 12
-16 30 -30 41 -30 18 0 19 -2 4 -30 -9 -17 -13 -40 -9 -54 6 -27 33 -43 39
-23 2 6 9 29 15 50 7 21 22 44 34 52 25 17 46 55 46 85 0 10 7 31 15 47 9 15
20 40 25 55 7 20 14 25 30 21 29 -8 45 -40 45 -92 0 -53 16 -62 48 -28 l23 25
-1 -55 c-1 -38 4 -62 16 -77 17 -21 17 -23 -3 -35 -11 -7 -17 -15 -14 -18 3
-3 12 0 20 6 19 16 36 6 36 -19 0 -27 -51 -51 -116 -55 -56 -4 -76 -13 -128
-59 -37 -33 -30 -33 25 -1 24 14 51 25 59 25 11 -1 11 -3 -3 -11 -13 -8 -15
-14 -7 -24 17 -20 2 -41 -41 -55 -24 -8 -51 -28 -66 -47 -14 -18 -32 -33 -39
-33 -8 0 -19 -9 -26 -20 -7 -11 -18 -20 -24 -20 -19 0 -43 -35 -38 -55 4 -15
-9 -33 -45 -69 -55 -52 -54 -50 -52 -114 2 -50 -12 -49 -29 3 -8 23 -18 35
-30 35 -10 0 -21 4 -24 9 -7 10 -39 5 -73 -11 -12 -6 -29 -8 -38 -4 -23 9 -83
-22 -91 -47 -16 -50 -12 -122 8 -149 27 -39 74 -38 110 2 32 36 54 40 43 8 -4
-13 -8 -36 -9 -53 -1 -26 2 -30 33 -32 40 -4 49 -14 45 -51 -2 -15 4 -37 12
-49 21 -32 12 -29 -41 17 -25 22 -52 40 -59 40 -7 0 -30 11 -50 25 -21 14 -51
25 -70 25 -34 0 -125 39 -143 62 -6 7 -16 29 -22 49 -6 20 -19 45 -29 55 -26
30 -41 55 -64 107 -24 52 -34 58 -48 25 -5 -13 -10 -17 -11 -10 -1 6 -3 17 -4
22 -1 6 -3 17 -4 24 0 8 -12 27 -26 42 -14 15 -25 30 -26 33 -9 104 12 196 56
249 24 28 25 31 25 60 0 14 2 15 10 2 17 -25 30 7 30 70 -1 63 3 90 14 108 4
7 2 12 -5 12 -8 0 -7 7 3 23 13 19 58 153 58 171 0 3 -6 5 -12 4 -7 -2 -12 4
-10 13 1 9 -6 24 -17 33 -11 10 -17 25 -14 37 4 13 0 19 -11 19 -10 0 -13 5
-9 17 5 12 -9 8 -53 -17 -32 -18 -68 -41 -79 -50 -23 -19 -93 -60 -103 -60 -3
0 5 8 18 17 62 43 72 59 43 65 -15 3 -15 5 3 22 13 14 15 21 6 24 -7 2 -9 8
-6 14 4 6 10 5 15 -3 6 -10 12 -3 24 24 11 27 28 43 65 62 27 14 55 25 62 25
7 0 28 13 46 29 32 28 32 29 10 36 -18 6 -20 8 -7 12 10 2 19 13 22 24 4 16
13 19 47 17 34 -2 45 1 54 17 29 52 79 104 104 110 15 4 47 17 72 30 54 27 60
29 61 13z m342 -10 c8 -28 -3 -40 -53 -63 -22 -10 -40 -22 -40 -27 0 -4 -7 -8
-15 -8 -22 0 -18 17 7 38 12 9 36 31 52 48 38 39 42 40 49 12z m1145 -24 c-4
-3 -12 5 -18 18 -12 22 -12 22 6 6 10 -10 15 -20 12 -24z m-890 -6 c-2 -7 8
-14 22 -16 14 -2 29 -8 34 -12 12 -12 -13 -42 -28 -33 -6 4 -18 6 -27 5 -20
-3 -30 29 -17 52 11 19 19 21 16 4z m1387 -7 c5 -9 -7 -74 -21 -121 -5 -13 -6
-13 -14 0 -15 23 -12 80 5 97 8 8 13 19 10 24 -4 5 -2 9 4 9 5 0 12 -4 16 -9z
m-1659 -36 c-3 -8 0 -15 7 -16 8 0 7 -2 -2 -6 -10 -4 -10 -7 -1 -13 9 -6 9
-13 1 -31 -9 -17 -4 -14 19 11 36 41 39 30 5 -25 -14 -22 -25 -48 -25 -58 0
-10 -7 -20 -15 -23 -8 -4 -15 -12 -15 -20 0 -19 -26 -18 -34 2 -3 8 -10 12
-16 9 -6 -4 -21 -8 -34 -11 -20 -3 -23 0 -22 24 2 42 13 54 37 41 28 -15 36
-3 14 21 -16 18 -17 20 -1 26 10 4 15 13 12 20 -3 8 10 24 32 39 43 29 46 30
38 10z m149 -25 c-3 -5 -11 -10 -16 -10 -6 0 -7 5 -4 10 3 6 11 10 16 10 6 0
7 -4 4 -10z m46 -24 c-7 -8 -20 -16 -31 -19 -17 -4 -18 -2 -10 14 13 23 44 41
48 28 2 -5 -1 -16 -7 -23z m-71 -15 c0 -10 -22 -31 -32 -31 -4 0 -8 11 -8 24
0 19 4 23 20 19 11 -3 20 -8 20 -12z m86 -38 c-31 -45 -36 -81 -6 -43 11 14
20 30 20 36 0 6 12 16 26 23 24 10 26 10 19 -6 -17 -42 -17 -53 -1 -53 9 0 16
5 16 11 0 5 5 7 10 4 7 -4 6 -13 -1 -26 -8 -15 -6 -31 6 -64 10 -24 14 -52 10
-65 -4 -12 -1 -30 7 -43 25 -38 27 -55 11 -69 -14 -11 -16 -11 -11 4 8 18 -13
31 -37 22 -17 -7 -20 -37 -6 -63 6 -10 6 -23 1 -31 -7 -11 -11 -12 -24 0 -22
17 -30 7 -16 -19 6 -12 7 -21 2 -21 -13 0 -28 20 -39 55 -7 22 -16 30 -31 29
-12 -1 -22 3 -22 7 0 5 10 9 23 9 13 0 35 16 56 41 28 35 32 45 27 77 -3 20
-7 52 -8 71 -1 31 -2 32 -15 15 -13 -18 -14 -18 -48 0 -38 21 -45 36 -18 36
13 0 14 3 5 12 -14 14 -1 42 37 74 35 30 38 23 7 -23z m94 12 c0 -8 -4 -15
-10 -15 -5 0 -7 7 -4 15 4 8 8 15 10 15 2 0 4 -7 4 -15z m-190 -32 c0 -26 -39
-85 -50 -78 -12 7 15 65 30 65 6 0 10 7 10 15 0 8 2 15 5 15 3 0 5 -8 5 -17z
m1551 -45 c6 -13 21 -33 32 -45 11 -13 16 -23 10 -23 -6 0 -16 7 -23 15 -7 8
-19 15 -26 15 -8 0 -14 6 -14 14 0 8 -3 21 -6 30 -9 25 14 19 27 -6z m-1649
-60 c-7 -7 -12 -8 -12 -2 0 14 12 26 19 19 2 -3 -1 -11 -7 -17z m1638 -129 c0
-6 -4 -7 -10 -4 -5 3 -10 11 -10 16 0 6 5 7 10 4 6 -3 10 -11 10 -16z m-2410
-4 c0 -2 -10 -10 -22 -16 -21 -11 -22 -11 -9 4 13 16 31 23 31 12z m814 -62
c-36 -18 -37 -17 -18 19 15 30 17 31 30 13 12 -16 11 -20 -12 -32z m872 -35
c10 -11 -43 -58 -66 -58 -28 0 -36 26 -16 49 16 18 67 23 82 9z m-1916 -2 c0
-2 -8 -10 -17 -17 -16 -13 -17 -12 -4 4 13 16 21 21 21 13z m4344 -248 c9 -12
16 -27 16 -32 0 -5 -13 9 -28 30 -16 21 -36 45 -46 53 -9 8 -22 24 -28 35 -12
23 60 -49 86 -86z m-2269 -5 c-4 -13 36 -78 58 -94 17 -12 2 -44 -22 -47 -15
-2 -21 0 -17 7 4 6 0 11 -8 11 -9 0 -16 7 -16 15 0 8 4 15 9 15 14 0 0 43 -18
57 -9 7 -12 13 -8 13 4 0 3 9 -3 20 -6 11 -8 25 -5 31 10 15 37 -11 30 -28z
m185 -23 c0 -5 -2 -10 -4 -10 -3 0 -8 5 -11 10 -3 6 -1 10 4 10 6 0 11 -4 11
-10z m-2021 -47 c0 -25 -1 -26 -9 -8 -12 27 -12 35 0 35 6 0 10 -12 9 -27z
m1791 8 c0 -30 -11 -51 -26 -51 -14 0 -14 19 1 53 10 23 25 22 25 -2z m2447
-100 c36 -14 35 -41 -1 -41 -15 0 -25 9 -33 31 -7 16 -9 29 -5 26 4 -2 21 -9
39 -16z m-3198 0 c21 -13 3 -31 -31 -31 -30 0 -31 0 -13 20 20 22 24 23 44 11z
m-169 -105 c0 -3 -4 -8 -10 -11 -5 -3 -10 -1 -10 4 0 6 5 11 10 11 6 0 10 -2
10 -4z m3395 -6 c6 -10 35 -115 32 -115 -1 0 -15 -7 -32 -16 -16 -9 -47 -19
-68 -22 -33 -5 -37 -4 -27 8 7 8 21 15 31 15 11 0 19 4 19 9 0 5 7 17 16 26
17 17 22 59 9 88 -8 18 9 25 20 7z m-2218 -122 c-3 -7 -5 -2 -5 12 0 14 2 19
5 13 2 -7 2 -19 0 -25z m2123 -93 c0 -5 -5 -3 -10 5 -5 8 -10 20 -10 25 0 6 5
3 10 -5 5 -8 10 -19 10 -25z m-4165 -142 c8 -20 13 -38 11 -40 -4 -5 -36 55
-36 69 0 18 10 6 25 -29z m4021 -49 c-4 -9 -9 -15 -11 -12 -3 3 -3 13 1 22 4
9 9 15 11 12 3 -3 3 -13 -1 -22z m-3437 -65 c18 -11 31 -22 28 -25 -2 -3 -22
6 -42 21 -45 30 -34 34 14 4z m3251 -24 c-7 -8 -18 -15 -24 -15 -6 0 -2 7 8
15 25 19 32 19 16 0z m-3125 -25 c-3 -5 -13 -10 -21 -10 -8 0 -14 5 -14 10 0
6 9 10 21 10 11 0 17 -4 14 -10z m3325 -20 c-10 -18 -30 -36 -30 -26 0 19 22
56 30 51 7 -4 7 -12 0 -25z m-3347 -157 c7 19 42 23 52 7 4 -6 25 -10 47 -8
28 1 44 -3 53 -15 7 -9 19 -17 27 -17 8 0 23 -9 32 -19 10 -11 35 -23 57 -26
28 -5 47 -17 69 -43 27 -33 29 -38 15 -59 -20 -31 -19 -36 7 -22 18 10 20 9
15 -5 -8 -21 8 -29 23 -12 13 16 50 13 61 -5 3 -6 24 -13 46 -14 43 -3 109
-41 116 -66 5 -19 -19 -80 -35 -90 -6 -4 -14 -44 -19 -90 -4 -46 -8 -85 -8
-86 -1 -2 -16 -9 -33 -16 -33 -14 -79 -57 -62 -57 15 0 14 -38 -2 -51 -8 -6
-14 -24 -14 -39 0 -56 -28 -78 -58 -48 -20 20 -14 -1 9 -32 25 -33 19 -60 -12
-60 -18 0 -20 -4 -15 -25 5 -18 2 -25 -9 -25 -17 0 -20 -11 -5 -26 5 -5 11
-26 14 -47 3 -21 12 -49 20 -62 9 -13 18 -52 20 -86 l5 -62 -32 31 c-31 30
-58 75 -91 152 -8 19 -26 53 -39 75 -24 42 -58 141 -103 310 -30 109 -53 148
-99 171 -41 21 -166 177 -169 212 -1 15 -5 32 -9 38 -3 6 4 33 17 59 24 47 24
60 0 120 -7 17 -6 18 8 7 13 -11 17 -9 22 12 4 15 17 28 33 34 24 8 29 6 33
-12 5 -19 7 -19 13 -3z m2959 -31 c23 -50 30 -94 15 -89 -17 5 -55 127 -40
127 5 0 16 -17 25 -38z m448 30 c0 -4 -9 -13 -20 -20 -16 -10 -20 -10 -20 1 0
8 3 17 7 20 9 9 33 9 33 -1z m-3550 -6 c0 -11 -19 -15 -25 -6 -3 5 1 10 9 10
9 0 16 -2 16 -4z m2750 -21 c0 -8 -4 -15 -10 -15 -5 0 -10 7 -10 15 0 8 5 15
10 15 6 0 10 -7 10 -15z m625 -48 c-9 -15 -14 -31 -10 -37 4 -6 -6 -23 -22
-38 -16 -15 -32 -35 -36 -44 -11 -30 -98 -11 -92 20 2 9 4 23 4 30 1 6 7 12
14 13 6 0 41 22 77 48 67 50 95 53 65 8z m-324 -25 c44 -49 74 -105 66 -126
-14 -35 -51 -6 -67 52 -5 20 -19 54 -30 75 -26 48 -12 47 31 -1z m569 -62 c0
-5 -7 -10 -16 -10 -8 0 -12 5 -9 10 3 6 10 10 16 10 5 0 9 -4 9 -10z m-220
-38 c0 -14 -2 -14 -9 -3 -7 11 -11 10 -20 -5 -10 -18 -10 -18 -11 3 0 21 17
35 33 26 4 -2 7 -12 7 -21z m320 12 c6 -6 3 -22 -9 -44 -21 -40 -41 -50 -41
-21 0 13 -9 25 -24 31 -29 11 -43 29 -19 26 10 -2 26 2 36 9 21 14 42 14 57
-1z m-576 -83 c3 -5 15 -7 25 -4 11 3 28 0 38 -7 15 -9 9 -10 -30 -7 -46 5
-92 27 -55 27 9 0 19 -4 22 -9z m393 -89 c9 -6 7 -13 -8 -26 -19 -15 -19 -19
-6 -39 25 -39 48 -33 99 24 41 47 47 51 48 31 0 -13 -7 -36 -15 -52 -9 -17
-17 -47 -20 -67 -9 -86 -16 -98 -73 -153 -50 -48 -163 -124 -311 -208 -37 -21
-131 -41 -131 -27 0 2 22 29 49 61 28 32 48 60 46 62 -2 2 -16 -4 -31 -14 -27
-18 -27 -18 -15 3 9 18 8 24 -5 31 -19 10 -51 4 -180 -33 -115 -33 -127 -32
-87 5 18 17 51 58 73 91 60 88 102 125 162 144 29 10 73 29 98 43 25 15 47 27
50 27 3 0 24 13 47 29 33 22 46 26 57 17 10 -8 19 -7 37 7 30 23 81 51 94 51
6 1 16 -3 22 -7z m-1458 -111 c-46 -86 -81 -131 -104 -131 -20 0 -19 25 4 69
11 20 22 44 25 54 3 9 16 21 28 26 13 5 34 21 48 35 43 43 43 29 -1 -53z m972
-501 c-13 -11 -28 -20 -33 -20 -6 0 0 9 13 20 13 10 29 19 34 19 6 0 -1 -9
-14 -19z"/>
<path d="M425 6680 c-97 -20 -201 -83 -282 -170 -49 -53 -104 -170 -111 -238
-6 -57 -8 -2345 -2 -2522 1 -52 11 -125 21 -162 22 -80 86 -205 134 -264 33
-40 402 -409 852 -851 166 -164 758 -748 1484 -1466 l49 -49 1 -301 c0 -444
-1 -435 55 -504 40 -49 90 -82 136 -89 18 -3 401 -5 851 -5 l817 0 45 26 c51
30 91 74 114 125 14 31 16 162 18 1270 0 679 -3 1263 -8 1296 -17 119 -65 230
-144 336 -70 93 -295 325 -977 1008 -704 705 -734 732 -842 766 -67 21 -233
26 -290 9 -145 -44 -268 -148 -332 -280 -36 -76 -38 -86 -42 -195 -3 -98 -1
-124 18 -179 40 -119 61 -143 550 -638 157 -158 306 -314 330 -346 38 -51 44
-67 48 -118 12 -159 -133 -296 -282 -268 -87 16 -8 -57 -906 840 l-687 686 -1
439 c-4 1539 -2 1462 -25 1518 -64 157 -196 277 -357 323 -31 9 -197 12 -235
3z"/>
<path d="M9708 6655 c-1 -1 -25 -5 -53 -8 -87 -10 -142 -29 -215 -75 -103 -65
-168 -148 -213 -273 -27 -74 -24 80 -28 -1310 l-1 -636 -687 -686 c-701 -701
-752 -751 -825 -800 -38 -27 -47 -29 -111 -25 -84 6 -140 32 -184 85 -64 76
-76 201 -27 272 34 50 68 85 463 487 190 195 360 374 376 398 54 84 75 168 72
286 -1 58 -5 115 -8 127 -18 73 -95 195 -156 250 -39 35 -140 90 -197 106 -30
9 -93 15 -151 15 -109 1 -184 -22 -273 -81 -42 -28 -1248 -1228 -1510 -1502
-215 -226 -266 -302 -315 -470 l-26 -89 1 -1241 c1 -683 5 -1259 10 -1280 12
-55 58 -115 115 -150 l48 -30 826 -2 c756 -2 830 -1 874 15 52 19 96 56 135
114 l25 39 3 367 3 367 274 270 c309 304 1330 1312 1804 1781 171 170 324 329
339 354 43 70 79 148 104 225 l23 69 0 1306 0 1305 -22 64 c-66 190 -221 322
-406 347 -22 3 -50 7 -62 9 -12 2 -23 2 -25 0z"/>
</g>
</svg>
